<svg width="78" height="78" viewBox="0 0 78 78" fill="none" xmlns="http://www.w3.org/2000/svg">
<g clip-path="url(#clip0_257_1208)" filter="url(#filter0_d_257_1208)">
<path d="M39 70C58.33 70 74 54.33 74 35C74 15.67 58.33 0 39 0C19.67 0 4 15.67 4 35C4 54.33 19.67 70 39 70Z" fill="#4F5D73"/>
<g opacity="0.2">
<path d="M39.1093 43.4219C37.3593 45.0625 32.4374 57.0937 32.4374 57.0937C31.6718 58.4062 32.7656 59.3906 35.2812 58.0781L44.1406 53.2656C48.9531 50.6406 49.8281 49.875 49.8281 44.5156L48.9531 38.0625C48.6249 35.875 46.9843 35.4375 45.3437 37.1875L39.1093 43.4219Z" fill="#231F20"/>
</g>
<g opacity="0.2">
<path d="M33.6405 37.9531C31.8905 39.7031 19.9687 44.625 19.9687 44.625C18.6562 45.3906 17.6718 44.2969 18.9843 41.7813L23.6874 32.8125C26.3124 28 27.078 27.125 32.4374 27.125L38.8905 28C41.078 28.3281 41.5155 29.9688 39.7655 31.6094L33.6405 37.9531Z" fill="#231F20"/>
</g>
<path d="M39.1093 41.2344C37.3593 42.875 32.4374 54.9062 32.4374 54.9062C31.6718 56.2187 32.7656 57.2031 35.2812 55.8906L44.1406 51.0781C48.9531 48.4531 49.8281 47.6875 49.8281 42.3281L48.9531 35.875C48.6249 33.6875 46.9843 33.25 45.3437 35L39.1093 41.2344Z" fill="#C75C5C"/>
<path d="M33.6405 35.7656C31.8905 37.5156 19.9687 42.4375 19.9687 42.4375C18.6562 43.2031 17.6718 42.1094 18.9843 39.5938L23.6874 30.625C26.3124 25.8125 27.078 24.9375 32.4374 24.9375L38.8905 25.8125C41.078 26.1406 41.5155 27.7813 39.7655 29.4219L33.6405 35.7656Z" fill="#C75C5C"/>
<g opacity="0.2">
<path d="M27.1875 43.2031C32.7656 37.625 37.3594 39.375 37.3594 39.375C37.3594 39.375 39 44.0781 33.5313 49.5469C28.0625 55.0156 18.9844 59.1719 18.3281 58.4062C17.6719 57.8594 21.7188 48.7812 27.1875 43.2031Z" fill="#231F20"/>
</g>
<path d="M27.1875 41.0156C32.7656 35.4375 37.3594 37.1875 37.3594 37.1875C37.3594 37.1875 39 41.8906 33.5313 47.3594C28.0625 52.8281 18.9844 56.9844 18.3281 56.2187C17.6719 55.6719 21.7188 46.5937 27.1875 41.0156Z" fill="#E0995E"/>
<path d="M31.8907 36.4219C37.4688 30.8437 42.0626 32.5937 42.0626 32.5937C42.0626 32.5937 43.7032 37.2969 38.2344 42.7656C32.7657 48.2344 23.6876 52.3906 23.0313 51.625C22.2657 50.9687 26.3126 42 31.8907 36.4219Z" fill="#F5CF87"/>
<g opacity="0.2">
<path d="M51.6876 40.5781C43.1564 49.1094 30.0314 46.8125 30.0314 46.8125C30.0314 46.8125 27.7345 33.6875 36.2657 25.1563C44.797 16.625 57.7032 15.75 59.4532 17.3906C61.0939 19.0313 60.2189 32.0469 51.6876 40.5781Z" fill="#231F20"/>
</g>
<path d="M51.6876 38.3906C43.1564 46.9219 30.0314 44.625 30.0314 44.625C30.0314 44.625 27.7345 31.5 36.2657 22.9688C44.797 14.4375 57.7032 13.5625 59.4532 15.2031C61.0939 16.8438 60.2189 29.8594 51.6876 38.3906Z" fill="#E0E0D1"/>
<g opacity="0.2">
<path d="M26.9687 51.4063C26.0937 52.2813 25.5468 53.0469 24.6718 52.1719C23.7968 51.2969 24.5624 50.75 25.4374 49.875L36.2655 35.9844C37.1405 35.1094 40.8593 34.3438 41.6249 35.2188C42.4999 36.0938 41.7343 39.8125 40.8593 40.5782L26.9687 51.4063Z" fill="#231F20"/>
</g>
<path d="M26.9687 49.2188C26.0937 50.0938 25.5468 50.8594 24.6718 49.9844C23.7968 49.1094 24.5624 48.5625 25.4374 47.6875L36.2655 33.7969C37.1405 32.9219 40.8593 32.1563 41.6249 33.0313C42.4999 33.9063 41.7343 37.625 40.8593 38.3907L26.9687 49.2188Z" fill="#C75C5C"/>
<g opacity="0.2">
<path d="M47.3125 34.0156C49.7287 34.0156 51.6875 32.0569 51.6875 29.6406C51.6875 27.2244 49.7287 25.2656 47.3125 25.2656C44.8963 25.2656 42.9375 27.2244 42.9375 29.6406C42.9375 32.0569 44.8963 34.0156 47.3125 34.0156Z" fill="#231F20"/>
</g>
<g opacity="0.2">
<path d="M53.5469 25.7031C54.755 25.7031 55.7344 24.7237 55.7344 23.5156C55.7344 22.3075 54.755 21.3281 53.5469 21.3281C52.3388 21.3281 51.3594 22.3075 51.3594 23.5156C51.3594 24.7237 52.3388 25.7031 53.5469 25.7031Z" fill="#231F20"/>
</g>
<path d="M47.3125 31.8281C49.7287 31.8281 51.6875 29.8694 51.6875 27.4531C51.6875 25.0369 49.7287 23.0781 47.3125 23.0781C44.8963 23.0781 42.9375 25.0369 42.9375 27.4531C42.9375 29.8694 44.8963 31.8281 47.3125 31.8281Z" fill="#4F5D73"/>
<path d="M53.5469 23.5156C54.755 23.5156 55.7344 22.5362 55.7344 21.3281C55.7344 20.12 54.755 19.1406 53.5469 19.1406C52.3388 19.1406 51.3594 20.12 51.3594 21.3281C51.3594 22.5362 52.3388 23.5156 53.5469 23.5156Z" fill="#4F5D73"/>
</g>
<defs>
<filter id="filter0_d_257_1208" x="0" y="0" width="78" height="78" filterUnits="userSpaceOnUse" color-interpolation-filters="sRGB">
<feFlood flood-opacity="0" result="BackgroundImageFix"/>
<feColorMatrix in="SourceAlpha" type="matrix" values="0 0 0 0 0 0 0 0 0 0 0 0 0 0 0 0 0 0 127 0" result="hardAlpha"/>
<feOffset dy="4"/>
<feGaussianBlur stdDeviation="2"/>
<feColorMatrix type="matrix" values="0 0 0 0 0 0 0 0 0 0 0 0 0 0 0 0 0 0 0.25 0"/>
<feBlend mode="normal" in2="BackgroundImageFix" result="effect1_dropShadow_257_1208"/>
<feBlend mode="normal" in="SourceGraphic" in2="effect1_dropShadow_257_1208" result="shape"/>
</filter>
<clipPath id="clip0_257_1208">
<rect width="70" height="70" fill="white" transform="translate(4)"/>
</clipPath>
</defs>
</svg>
