<?xml version="1.0" encoding="UTF-8"?>
<!DOCTYPE svg PUBLIC "-//W3C//DTD SVG 1.1//EN" "http://www.w3.org/Graphics/SVG/1.1/DTD/svg11.dtd">
<!-- Creator: CorelDRAW X7 -->
<svg xmlns="http://www.w3.org/2000/svg" xml:space="preserve" width="1.91333in" height="1.91333in" version="1.1" style="shape-rendering:geometricPrecision; text-rendering:geometricPrecision; image-rendering:optimizeQuality; fill-rule:evenodd; clip-rule:evenodd"
viewBox="0 0 1913 1913"
 xmlns:xlink="http://www.w3.org/1999/xlink">
 <defs>
  <style type="text/css">
   <![CDATA[
    .fil17 {fill:none}
    .fil1 {fill:#B6883C}
    .fil16 {fill:#4F5D73}
    .fil14 {fill:#282828}
    .fil2 {fill:#2D2D2D}
    .fil11 {fill:#303030}
    .fil4 {fill:#333333}
    .fil12 {fill:#444444}
    .fil13 {fill:#515151}
    .fil7 {fill:#A31D2D}
    .fil5 {fill:#B4222D}
    .fil6 {fill:#BC2A3C}
    .fil9 {fill:#CE9D4E}
    .fil0 {fill:#E3E3E6}
    .fil10 {fill:#EDBF77}
    .fil8 {fill:#F7CD84}
    .fil3 {fill:#F7CD84}
    .fil15 {fill:white}
   ]]>
  </style>
   <clipPath id="id0">
    <path d="M0 1913l1913 0 0 -1913 -1913 0 0 1913z"/>
   </clipPath>
 </defs>
 <g id="Layer_x0020_1">
  <metadata id="CorelCorpID_0Corel-Layer"/>
  <g>
  </g>
  <g style="clip-path:url(#id0)">
   <g>
    <path class="fil0" d="M0 957c0,-529 428,-957 957,-957 528,0 956,428 956,957 0,528 -428,956 -956,956 -529,0 -957,-428 -957,-956z"/>
    <path class="fil1" d="M564 1206c0,10 -15,-280 -15,-280 0,0 -58,-5 -99,-5 -41,0 -99,6 -99,6 0,0 -14,289 -14,279l227 0z"/>
    <polygon class="fil2" points="406,677 395,923 506,923 495,677 "/>
    <polygon class="fil3" points="448,923 426,923 426,1206 448,1206 "/>
    <polygon class="fil4" points="426,677 426,922 426,923 448,923 448,921 448,677 "/>
    <path class="fil5" d="M750 798c0,8 -77,8 -77,0 0,0 0,-112 0,-138 0,-26 37,-71 51,-71 17,0 26,46 26,71 0,25 0,138 0,138z"/>
    <path class="fil6" d="M712 807c0,0 -18,-1 -18,-9 0,-107 0,-107 0,-138 0,-26 4,-46 18,-41l0 188z"/>
    <path class="fil7" d="M674 651c7,-26 38,-62 50,-62 8,0 17,16 6,37 -11,24 -27,34 -41,36 -14,2 -15,-11 -15,-11z"/>
    <path class="fil1" d="M761 965c0,10 -99,10 -99,0l0 -178c0,0 21,-5 49,-5 27,0 50,5 50,5l0 178z"/>
    <path class="fil8" d="M711 782c-9,0 -17,1 -24,2l0 187c7,1 16,1 24,1l0 -190c0,0 0,0 0,0z"/>
    <path class="fil2" d="M710 955c-33,0 -59,7 -59,7l0 244 120 0 0 -244c0,0 -27,-7 -61,-7z"/>
    <path class="fil4" d="M710 968c-8,0 -16,1 -23,2l0 236 24 0c0,0 0,-238 0,-238 0,0 0,0 -1,0z"/>
    <path class="fil9" d="M772 992l-121 0 0 -43c0,0 26,-2 59,-2 34,0 62,2 62,2l0 43z"/>
    <path class="fil1" d="M772 995l-121 0 0 -43c0,0 26,-2 59,-2 34,0 62,2 62,2l0 43z"/>
    <path class="fil10" d="M710 950c-8,0 -16,0 -23,1l0 1 0 43 24 0 0 -43 0 -2c0,0 0,0 -1,0z"/>
    <path class="fil11" d="M1125 587c0,12 -10,10 -23,10l-26 0c-13,0 -23,2 -23,-10l0 -44c0,-13 0,-23 17,-23l38 0c17,0 17,10 17,23l0 44z"/>
    <path class="fil11" d="M1128 546c0,2 -1,3 -3,3l-72 0c-2,0 -3,-1 -3,-3 0,-1 1,-2 3,-2l72 0c2,0 3,1 3,2z"/>
    <path class="fil11" d="M1128 557c0,1 -1,2 -3,2l-72 0c-2,0 -3,-1 -3,-2 0,-1 1,-2 3,-2l72 0c2,0 3,1 3,2z"/>
    <path class="fil12" d="M1145 1191c0,19 -16,15 -36,15l-40 0c-20,0 -36,4 -36,-15l0 -601c0,-19 16,-16 36,-16l40 0c20,0 36,-3 36,16l0 601z"/>
    <polygon class="fil13" points="1088,574 1069,574 1069,1206 1088,1206 "/>
    <path class="fil14" d="M917 965c0,12 -5,22 -10,22 -6,0 -10,-10 -10,-22l0 -443c0,-12 4,-22 10,-22 5,0 10,10 10,22l0 443z"/>
    <path class="fil14" d="M912 376c0,-2 12,-3 17,-3 -3,-2 -12,-3 -22,-3 -10,0 -19,1 -23,3 5,0 17,1 17,3 0,1 -16,2 -19,2l0 1c3,0 19,2 19,3 0,1 -16,2 -19,2l0 2c3,0 19,2 19,3 0,1 -16,2 -19,2l0 2c3,0 19,1 19,2 0,2 -16,2 -19,3l0 1c3,0 19,2 19,3 0,1 -16,2 -19,2l0 2c3,0 19,1 19,3 0,1 -16,2 -19,2l0 2c3,0 19,1 19,2 0,2 -16,2 -19,3l0 0c3,0 19,2 19,3 0,1 -16,2 -19,2l0 1c3,1 19,2 19,3 0,1 -16,2 -19,2l0 2c3,1 19,2 19,3 0,1 -16,2 -19,2l0 2c3,0 19,1 19,3 0,1 -16,2 -19,2l0 1c3,1 19,2 19,3 0,1 -16,2 -19,2l0 2c3,1 19,2 19,3 0,1 -16,2 -19,2l0 2c3,0 19,1 19,3 0,1 -16,2 -19,2l0 0c3,1 19,2 19,3 0,1 -16,2 -19,2l0 2c3,0 19,1 19,2 0,2 -16,3 -19,3l0 2c3,0 19,1 19,2 0,2 -16,2 -19,3l0 1c3,0 19,2 19,3 0,1 -16,2 -19,2l0 2c3,0 19,1 19,2 0,2 -16,2 -19,3l0 2c3,0 19,1 19,2 0,2 -16,2 -19,2l0 2c3,0 19,2 19,3 0,1 -16,2 -19,2l0 1c3,0 19,1 19,2 0,2 -16,2 -19,3l0 1c3,0 19,2 19,3 0,1 -16,2 -19,2l0 2c3,0 19,1 19,3 0,1 -16,2 -19,2l0 2c3,0 19,1 19,2 0,2 -16,2 -19,3l0 1c3,0 19,1 19,3 0,1 -10,1 -15,2 4,2 12,4 21,4 9,0 17,-2 21,-4 -6,-1 -16,-1 -16,-2 0,-1 16,-3 19,-3l0 -2c-3,0 -19,-1 -19,-2 0,-1 16,-2 19,-2l0 -2c-3,0 -19,-1 -19,-2 0,-1 16,-3 19,-3l0 -2c-3,0 -19,-1 -19,-2 0,-1 16,-3 19,-3l0 -1c-3,-1 -19,-1 -19,-3 0,-1 16,-2 19,-2l0 -1c-3,0 -19,-1 -19,-2 0,-1 16,-3 19,-3l0 -1c-3,-1 -19,-1 -19,-3 0,-1 16,-2 19,-2l0 -2c-3,-1 -19,-1 -19,-3 0,-1 16,-2 19,-2l0 -2c-3,0 -19,-1 -19,-2 0,-1 16,-2 19,-3l0 -1c-3,-1 -19,-1 -19,-3 0,-1 16,-2 19,-2l0 -2c-3,0 -19,-1 -19,-2 0,-2 16,-3 19,-3l0 -2c-3,0 -19,-1 -19,-2 0,-1 16,-2 19,-3l0 0c-3,0 -19,-1 -19,-2 0,-2 16,-3 19,-3l0 -2c-3,0 -19,-1 -19,-2 0,-1 16,-2 19,-3l0 -2c-3,0 -19,-1 -19,-2 0,-1 16,-2 19,-3l0 -1c-3,0 -19,-1 -19,-2 0,-1 16,-3 19,-3l0 -2c-3,0 -19,-1 -19,-2 0,-1 16,-2 19,-3l0 -2c-3,0 -19,-1 -19,-2 0,-1 16,-2 19,-2l0 -2c-3,0 -19,-1 -19,-2 0,-1 16,-3 19,-3l0 0c-3,-1 -19,-2 -19,-3 0,-1 16,-2 19,-2l0 -2c-3,0 -19,-1 -19,-2 0,-1 16,-3 19,-3l0 -2c-3,0 -19,-1 -19,-2 0,-1 16,-3 19,-3l0 -1c-3,-1 -19,-1 -19,-3 0,-1 16,-2 19,-2l0 -2c-3,0 -19,-1 -19,-2 0,-1 16,-3 19,-3l0 -2c-3,0 -19,-1 -19,-2 0,-1 16,-3 19,-3l0 -1c-3,0 -19,-1 -19,-2z"/>
    <path class="fil14" d="M882 399c0,0 0,0 0,0l0 0z"/>
    <path class="fil14" d="M882 404c0,0 0,0 0,0l0 0z"/>
    <path class="fil12" d="M963 1191c0,19 -15,15 -35,15l-41 0c-19,0 -35,4 -35,-15l0 -256 111 0 0 256z"/>
    <polygon class="fil13" points="897,935 877,935 877,1206 897,1206 "/>
    <path class="fil4" d="M1402 1122c101,0 184,-83 184,-184 0,-102 -83,-184 -184,-184 -101,0 -184,82 -184,184 0,101 83,184 184,184z"/>
    <path class="fil15" d="M1402 1062c69,0 124,-56 124,-124 0,-69 -55,-124 -124,-124 -68,0 -124,55 -124,124 0,68 56,124 124,124z"/>
    <path class="fil12" d="M1587 1095c0,17 -16,31 -36,31l-298 0c-20,0 -36,-14 -36,-31l0 -11c0,-17 16,-31 36,-31l298 0c20,0 36,14 36,31l0 11z"/>
    <path class="fil16" d="M1396 1029c-3,0 -5,-1 -7,-3l-73 -74c-4,-3 -4,-9 0,-13 3,-3 9,-3 12,0l74 74c4,4 4,9 0,13 -2,2 -4,3 -6,3z"/>
    <path class="fil16" d="M1482 942c-2,0 -4,-1 -6,-3l-74 -73c-3,-4 -3,-10 0,-13 4,-4 9,-4 13,0l74 74c3,3 3,9 0,12 -2,2 -4,3 -7,3z"/>
    <path class="fil16" d="M1461 1007c-2,0 -4,0 -6,-2l-118 -118c-4,-4 -4,-10 0,-13 3,-4 9,-4 12,0l119 118c3,4 3,9 0,13 -2,2 -5,2 -7,2z"/>
    <path class="fil2" d="M1197 1325c0,22 -18,39 -39,39l-793 0c-21,0 -39,-17 -39,-39 0,-21 18,-39 39,-39l793 0c21,0 39,18 39,39z"/>
    <path class="fil12" d="M1161 1382c-10,-13 -9,-100 0,-113l267 -75c9,0 40,63 40,128 0,65 -30,132 -40,132l-267 -72z"/>
    <path class="fil1" d="M1161 1381l-237 -17c-22,0 -22,-78 0,-78l237 -17 0 112z"/>
    <path class="fil2" d="M1225 1291c-4,0 -8,-3 -9,-8 -1,-5 2,-10 7,-11l188 -44c5,-1 10,2 11,7 2,5 -2,10 -7,12l-187 43c-1,0 -2,1 -3,1z"/>
    <path class="fil2" d="M1221 1333c-5,-1 -8,-5 -8,-9 0,-6 5,-10 10,-10l193 1c5,0 9,4 9,9 0,6 -4,10 -9,10l-193 -1c-1,0 -2,0 -2,0z"/>
    <path class="fil2" d="M1413 1421c4,0 8,-3 9,-8 2,-5 -2,-10 -7,-11l-187 -44c-6,-1 -11,2 -12,7 -1,5 2,11 7,12l188 43c1,1 1,1 2,1z"/>
   </g>
  </g>
  <polygon class="fil17" points="0,1913 1913,1913 1913,0 0,0 "/>
 </g>
</svg>
