<svg width="78" height="78" viewBox="0 0 78 78" fill="none" xmlns="http://www.w3.org/2000/svg">
<g clip-path="url(#clip0_257_1262)" filter="url(#filter0_d_257_1262)">
<path d="M4 35.0005C4 15.6688 19.6702 0.00012207 38.9996 0.00012207C58.3298 0.00012207 74 15.6688 74 35.0005C74 54.3291 58.3298 69.9993 38.9996 69.9993C19.6702 69.9993 4 54.3291 4 35.0005Z" fill="#25B7D3"/>
<path d="M24.6171 44.1202C24.6171 44.4857 24.0998 33.8634 24.0998 33.8634C24.0998 33.8634 21.9615 33.7104 20.4738 33.7104C18.9773 33.7104 16.8331 33.9157 16.8331 33.9157C16.8331 33.9157 16.3306 44.4825 16.3306 44.1202H24.6171Z" fill="#B4222D"/>
<path d="M18.8434 24.7538L18.4358 33.7818H22.5116L22.104 24.7538H18.8434Z" fill="#2D2D2D"/>
<path d="M20.3768 33.7825H19.6008V44.1211H20.3768V33.7825Z" fill="#BC2A3C"/>
<path d="M19.6016 24.7538V33.7286V33.7818H20.3775V33.7108V24.7538H19.6016Z" fill="#333333"/>
<path d="M31.4264 29.2054C31.4264 29.4999 28.6274 29.4999 28.6274 29.2054C28.6274 29.2054 28.6274 25.0845 28.6274 24.1408C28.6274 23.1968 29.9921 21.5472 30.4921 21.5472C31.0919 21.5472 31.4264 23.235 31.4264 24.1408C31.4264 25.0461 31.4264 29.2054 31.4264 29.2054Z" fill="#B4222D"/>
<path d="M30.0424 29.5076C30.0424 29.5076 29.3926 29.4997 29.3926 29.2052C29.3926 25.2968 29.3926 25.2968 29.3926 24.1406C29.3926 23.1966 29.5424 22.4467 30.0421 22.6592L30.0424 29.5076Z" fill="#BC2A3C"/>
<path d="M28.6716 23.8163C28.9309 22.8681 30.0456 21.5471 30.4922 21.5471C30.7677 21.5471 31.1028 22.1337 30.7236 22.9091C30.2921 23.7901 29.7195 24.1529 29.2237 24.2214C28.6801 24.2964 28.6716 23.8163 28.6716 23.8163Z" fill="#A31D2D"/>
<path d="M31.8261 35.2899C31.8261 35.6684 28.2273 35.6684 28.2273 35.2899V28.7779C28.2273 28.7779 29.0021 28.5953 29.9985 28.5953C30.9948 28.5953 31.8261 28.7779 31.8261 28.7779V35.2899Z" fill="#EABC60"/>
<path d="M29.9986 28.5953C29.6804 28.5953 29.3848 28.6355 29.1301 28.6906V35.5398C29.4048 35.5626 29.7173 35.5738 30.0297 35.5738V28.5956C30.0194 28.5953 30.0089 28.5953 29.9986 28.5953Z" fill="#F7CD84"/>
<path d="M29.9923 34.9413C28.7781 34.9413 27.834 35.1911 27.834 35.1911V44.1201H32.2199V35.1911C32.2199 35.1911 31.2069 34.9413 29.9923 34.9413Z" fill="#2D2D2D"/>
<path d="M29.9922 35.4309C29.6837 35.4309 29.3925 35.447 29.1301 35.471V44.1201H30.0271C30.0281 44.1201 30.0297 35.4313 30.0297 35.4313C30.0171 35.4313 30.0047 35.4309 29.9922 35.4309Z" fill="#333333"/>
<path d="M32.2387 36.2931H27.8152V34.7332C27.8152 34.7332 28.7672 34.656 29.9921 34.656C31.2167 34.656 32.2387 34.7332 32.2387 34.7332V36.2931Z" fill="#CE9D4E"/>
<path d="M32.2387 36.4056H27.8152V34.8456C27.8152 34.8456 28.7672 34.7684 29.9921 34.7684C31.2167 34.7684 32.2387 34.8456 32.2387 34.8456V36.4056Z" fill="#E0AE55"/>
<path d="M29.9922 34.7684C29.6837 34.7684 29.3925 34.7734 29.1301 34.7808V34.8456V36.4056H30.0297V34.8456V34.7687C30.0171 34.7687 30.0047 34.7684 29.9922 34.7684Z" fill="#EDBF77"/>
<path d="M45.1597 21.4652C45.1597 21.9253 44.7867 21.8353 44.3266 21.8353H43.3551C42.8947 21.8353 42.522 21.9253 42.522 21.4652V19.856C42.522 19.3959 42.5184 19.0232 43.1618 19.0232H44.5199C45.1632 19.0232 45.1597 19.3961 45.1597 19.856V21.4652Z" fill="#303030"/>
<path d="M45.2575 19.986C45.2575 20.0343 45.2197 20.0734 45.173 20.0734H42.5081C42.4614 20.0734 42.4236 20.0343 42.4236 19.986C42.4236 19.9376 42.4614 19.8986 42.5081 19.8986H45.173C45.2197 19.8986 45.2575 19.9376 45.2575 19.986Z" fill="#303030"/>
<path d="M45.2575 20.378C45.2575 20.4264 45.2197 20.4655 45.173 20.4655H42.5081C42.4614 20.4655 42.4236 20.4264 42.4236 20.378C42.4236 20.3296 42.4614 20.2905 42.5081 20.2905H45.173C45.2197 20.2905 45.2575 20.3297 45.2575 20.378Z" fill="#303030"/>
<path d="M45.8724 43.5634C45.8724 44.2721 45.2982 44.1339 44.5893 44.1339H43.0924C42.3836 44.1339 41.8091 44.2721 41.8091 43.5634V21.5938C41.8091 20.8853 42.3834 20.9884 43.0924 20.9884H44.5893C45.2981 20.9884 45.8724 20.8853 45.8724 21.5938V43.5634Z" fill="#444444"/>
<path d="M43.7982 20.9889H43.0928V44.1351H43.7982V20.9889Z" fill="#515151"/>
<path d="M37.5322 35.2946C37.5322 35.7473 37.3726 36.1144 37.1757 36.1144C36.979 36.1144 36.8196 35.7473 36.8196 35.2946V19.1129C36.8196 18.6601 36.9791 18.2931 37.1757 18.2931C37.3726 18.2931 37.5322 18.6601 37.5322 19.1129V35.2946Z" fill="#282828"/>
<path d="M37.3684 13.7384C37.3684 13.6995 37.8072 13.6604 38.0001 13.645C37.867 13.5656 37.5486 13.548 37.1756 13.548C36.8041 13.548 36.4861 13.5653 36.3525 13.6443C36.5372 13.659 36.9805 13.6989 36.9805 13.7384C36.9805 13.7817 36.3761 13.8134 36.2849 13.818V13.873C36.3761 13.8798 36.9805 13.9261 36.9805 13.9724C36.9805 14.0157 36.3761 14.0473 36.2849 14.0519V14.1268C36.3761 14.1335 36.9805 14.1799 36.9805 14.2263C36.9805 14.2696 36.3761 14.3012 36.2849 14.3056V14.3674C36.3761 14.374 36.9805 14.4203 36.9805 14.4667C36.9805 14.51 36.3761 14.5416 36.2849 14.546V14.6013C36.3761 14.6081 36.9805 14.6541 36.9805 14.7005C36.9805 14.7438 36.3761 14.7754 36.2849 14.7801V14.855C36.3761 14.8617 36.9805 14.908 36.9805 14.9543C36.9805 14.9976 36.3761 15.0294 36.2849 15.0339V15.0957C36.3761 15.1023 36.9805 15.1486 36.9805 15.1948C36.9805 15.2382 36.3761 15.2698 36.2849 15.2744V15.2959C36.3761 15.3028 36.9805 15.3491 36.9805 15.3953C36.9805 15.4386 36.3761 15.4702 36.2849 15.4746V15.5299C36.3761 15.5367 36.9805 15.5828 36.9805 15.6292C36.9805 15.6726 36.3761 15.7042 36.2849 15.7087V15.7837C36.3761 15.7904 36.9805 15.8368 36.9805 15.8829C36.9805 15.9264 36.3761 15.9578 36.2849 15.9625V16.0243C36.3761 16.0311 36.9805 16.0772 36.9805 16.1235C36.9805 16.1669 36.3761 16.1987 36.2849 16.203V16.2582C36.3761 16.2648 36.9805 16.3111 36.9805 16.3575C36.9805 16.4007 36.3761 16.4323 36.2849 16.437V16.512C36.3761 16.5188 36.9805 16.5649 36.9805 16.6113C36.9805 16.6546 36.3761 16.6862 36.2849 16.6908V16.7526C36.3761 16.7592 36.9805 16.8055 36.9805 16.8517C36.9805 16.8951 36.3761 16.9267 36.2849 16.9313V16.9528C36.3761 16.9594 36.9805 17.0059 36.9805 17.0522C36.9805 17.0954 36.3761 17.1271 36.2849 17.1317V17.1867C36.3761 17.1933 36.9805 17.2397 36.9805 17.286C36.9805 17.3292 36.3761 17.3609 36.2849 17.3654V17.4406C36.3761 17.4473 36.9805 17.4935 36.9805 17.5398C36.9805 17.5831 36.3761 17.6147 36.2849 17.6194V17.6812C36.3761 17.6878 36.9805 17.7341 36.9805 17.7805C36.9805 17.8237 36.3761 17.8553 36.2849 17.8599V17.915C36.3761 17.9217 36.9805 17.968 36.9805 18.0143C36.9805 18.0576 36.3761 18.0892 36.2849 18.0938V18.1688C36.3761 18.1755 36.9805 18.2218 36.9805 18.2679C36.9805 18.3115 36.3761 18.3431 36.2849 18.3475V18.4093C36.3761 18.4159 36.9805 18.4621 36.9805 18.5086C36.9805 18.5517 36.3761 18.5835 36.2849 18.5881V18.6096C36.3761 18.6163 36.9805 18.6626 36.9805 18.709C36.9805 18.7523 36.3761 18.7839 36.2849 18.7884V18.8436C36.3761 18.8502 36.9805 18.8965 36.9805 18.9427C36.9805 18.9861 36.3761 19.0179 36.2849 19.0222V19.0972C36.3761 19.1041 36.9805 19.1501 36.9805 19.1967C36.9805 19.2399 36.3761 19.2716 36.2849 19.2763V19.3396C36.3761 19.3465 36.9805 19.3928 36.9805 19.4389C36.9805 19.4824 36.3761 19.514 36.2849 19.5185V19.5735C36.3761 19.5803 36.9805 19.6266 36.9805 19.6729C36.9805 19.7071 36.6047 19.7339 36.401 19.7461C36.5541 19.8361 36.8435 19.8968 37.1756 19.8968C37.5088 19.8968 37.7987 19.8358 37.9515 19.7457C37.7425 19.7334 37.3684 19.7067 37.3684 19.6729C37.3684 19.628 37.9463 19.5831 38.0667 19.5744V19.5182C37.9462 19.5122 37.3684 19.4811 37.3684 19.4389C37.3684 19.3942 37.9463 19.3494 38.0667 19.3405V19.2774C37.9462 19.2716 37.3684 19.2406 37.3684 19.1985C37.3684 19.1537 37.9463 19.1088 38.0667 19.0999V19.0236C37.9462 19.0175 37.3684 18.9865 37.3684 18.9444C37.3684 18.8996 37.9463 18.8549 38.0667 18.846V18.7897C37.9462 18.7836 37.3684 18.7526 37.3684 18.7107C37.3684 18.6659 37.9463 18.6209 38.0667 18.612V18.5893C37.9462 18.5833 37.3684 18.5521 37.3684 18.5102C37.3684 18.4653 37.9463 18.4203 38.0667 18.4117V18.3486C37.9462 18.3426 37.3684 18.3115 37.3684 18.2694C37.3684 18.2246 37.9463 18.1798 38.0667 18.171V18.0947C37.9462 18.0885 37.3684 18.0576 37.3684 18.0155C37.3684 17.9707 37.9463 17.9257 38.0667 17.9171V17.8608C37.9462 17.8547 37.3684 17.8238 37.3684 17.7818C37.3684 17.7368 37.9463 17.6919 38.0667 17.683V17.6202C37.9462 17.6142 37.3684 17.583 37.3684 17.5411C37.3684 17.4962 37.9463 17.4513 38.0667 17.4425V17.3663C37.9462 17.3602 37.3684 17.329 37.3684 17.2871C37.3684 17.2423 37.9463 17.1974 38.0667 17.1886V17.1322C37.9462 17.1261 37.3684 17.0953 37.3684 17.0533C37.3684 17.0083 37.9463 16.9635 38.0667 16.9547V16.9319C37.9462 16.9257 37.3684 16.8946 37.3684 16.8527C37.3684 16.8079 37.9463 16.763 38.0667 16.7541V16.6912C37.9462 16.6853 37.3684 16.6541 37.3684 16.6122C37.3684 16.5673 37.9463 16.5224 38.0667 16.5136V16.4372C37.9462 16.4312 37.3684 16.4001 37.3684 16.3582C37.3684 16.3132 37.9463 16.2685 38.0667 16.2596V16.2033C37.9462 16.1973 37.3684 16.1662 37.3684 16.1242C37.3684 16.0794 37.9463 16.0346 38.0667 16.0258V15.9628C37.9462 15.9568 37.3684 15.9258 37.3684 15.8836C37.3684 15.8389 37.9463 15.794 38.0667 15.7853V15.7088C37.9462 15.7026 37.3684 15.6717 37.3684 15.6298C37.3684 15.5849 37.9463 15.5399 38.0667 15.5312V15.475C37.9462 15.469 37.3684 15.4378 37.3684 15.3959C37.3684 15.3509 37.9463 15.3062 38.0667 15.2973V15.2744C37.9462 15.2684 37.3684 15.2375 37.3684 15.1953C37.3684 15.1505 37.9463 15.1057 38.0667 15.0969V15.0339C37.9462 15.0278 37.3684 14.9968 37.3684 14.9547C37.3684 14.9099 37.9463 14.8651 38.0667 14.8562V14.7798C37.9462 14.774 37.3684 14.7428 37.3684 14.7008C37.3684 14.656 37.9463 14.611 38.0667 14.6023V14.546C37.9462 14.5398 37.3684 14.5089 37.3684 14.467C37.3684 14.422 37.9463 14.3771 38.0667 14.3684V14.3055C37.9462 14.2995 37.3684 14.2683 37.3684 14.2264C37.3684 14.1816 37.9463 14.1366 38.0667 14.1278V14.0515C37.9462 14.0454 37.3684 14.0144 37.3684 13.9724C37.3684 13.9275 37.9463 13.8826 38.0667 13.8739V13.8176C37.9462 13.8114 37.3684 13.7806 37.3684 13.7384Z" fill="#282828"/>
<path d="M36.285 14.6016C36.2773 14.6009 36.2725 14.6005 36.2725 14.6005L36.285 14.6016Z" fill="#282828"/>
<path d="M36.2725 14.7807C36.2725 14.7807 36.2773 14.7807 36.285 14.7805L36.2725 14.7807Z" fill="#282828"/>
<path d="M39.243 43.5634C39.243 44.2721 38.6687 44.134 37.9599 44.134H36.463C35.7543 44.134 35.1797 44.2721 35.1797 43.5634V34.2252H39.243V43.5634Z" fill="#444444"/>
<path d="M36.8033 34.2227H36.0979V44.1338H36.8033V34.2227Z" fill="#515151"/>
<path d="M55.2953 41.0303C59.0053 41.0303 62.0128 38.0228 62.0128 34.3129C62.0128 30.603 59.0053 27.5955 55.2953 27.5955C51.5854 27.5955 48.5779 30.603 48.5779 34.3129C48.5779 38.0228 51.5854 41.0303 55.2953 41.0303Z" fill="#333333"/>
<path d="M55.2952 38.846C57.7988 38.846 59.8283 36.8165 59.8283 34.3129C59.8283 31.8094 57.7988 29.7799 55.2952 29.7799C52.7917 29.7799 50.7622 31.8094 50.7622 34.3129C50.7622 36.8165 52.7917 38.846 55.2952 38.846Z" fill="#A3D5E0"/>
<path d="M62.0675 40.0478C62.0675 40.6811 61.4806 41.1946 60.7568 41.1946H49.8343C49.1103 41.1946 48.5234 40.6811 48.5234 40.0478V39.6654C48.5234 39.0321 49.1103 38.5186 49.8343 38.5186H60.7568C61.4806 38.5186 62.0675 39.0321 62.0675 39.6654V40.0478Z" fill="#444444"/>
<path d="M55.0638 37.6306C54.98 37.6306 54.8962 37.5986 54.832 37.5346L52.1288 34.8314C52.001 34.7036 52.001 34.496 52.1288 34.3681C52.2569 34.2401 52.4642 34.2401 52.5923 34.3681L55.2955 37.0712C55.4234 37.1992 55.4234 37.4067 55.2955 37.5346C55.2317 37.5986 55.1477 37.6306 55.0638 37.6306Z" fill="#DAEEF2"/>
<path d="M58.2307 34.464C58.1468 34.464 58.0629 34.432 57.9989 34.3679L55.2957 31.6646C55.1677 31.5368 55.1677 31.3292 55.2957 31.2014C55.4236 31.0733 55.631 31.0733 55.7589 31.2014L58.4623 33.9046C58.5901 34.0324 58.5901 34.24 58.4623 34.3679C58.3983 34.4321 58.3143 34.464 58.2307 34.464Z" fill="#DAEEF2"/>
<path d="M57.4582 36.8581C57.3744 36.8581 57.2906 36.8261 57.2264 36.7621L52.9013 32.437C52.7735 32.3092 52.7735 32.1016 52.9013 31.9737C53.0294 31.8457 53.2366 31.8457 53.3647 31.9737L57.6898 36.2987C57.8176 36.4267 57.8176 36.6342 57.6898 36.7621C57.6258 36.8261 57.542 36.8581 57.4582 36.8581Z" fill="#DAEEF2"/>
<path d="M47.7876 48.4828C47.7876 49.2705 47.1489 49.9092 46.3605 49.9092H17.3592C16.5711 49.9092 15.9324 49.2705 15.9324 48.4828C15.9324 47.6947 16.5711 47.0559 17.3592 47.0559H46.3605C47.1489 47.0559 47.7876 47.6947 47.7876 48.4828Z" fill="#2D2D2D"/>
<path d="M46.4763 50.5429C46.1251 50.0726 46.1317 46.9196 46.4882 46.4308L56.2326 43.6783C56.5867 43.6783 57.69 46.0002 57.6944 48.3506C57.6987 50.7591 56.5955 53.1976 56.2326 53.1976L46.4763 50.5429Z" fill="#444444"/>
<path d="M46.4873 50.5352L37.7878 49.9092C36.9994 49.9092 36.9994 47.0558 37.7878 47.0558L46.4873 46.4298V50.5352Z" fill="#E0AE55"/>
<path d="M48.8293 47.2151C48.6689 47.2151 48.524 47.1052 48.4861 46.9422C48.4419 46.7523 48.5597 46.5628 48.7495 46.5187L55.6156 44.9196C55.8065 44.8756 55.995 44.9934 56.0392 45.1833C56.0833 45.3729 55.9656 45.5625 55.7757 45.6068L48.9096 47.2056C48.8827 47.2121 48.8557 47.2151 48.8293 47.2151Z" fill="#2D2D2D"/>
<path d="M48.6562 48.7756C48.5003 48.7386 48.3844 48.5982 48.385 48.4312C48.3856 48.2363 48.5439 48.079 48.7387 48.0796L55.7885 48.1023C55.9844 48.1032 56.1408 48.2615 56.1401 48.4563C56.1396 48.6511 55.9813 48.8084 55.7864 48.8079L48.7366 48.785C48.7088 48.7849 48.6821 48.7816 48.6562 48.7756Z" fill="#2D2D2D"/>
<path d="M55.6961 51.9767C55.8566 51.9767 56.0015 51.8668 56.0394 51.7038C56.0836 51.5139 55.9658 51.3244 55.776 51.2803L48.9099 49.6812C48.719 49.6372 48.5305 49.755 48.4863 49.9449C48.4422 50.1345 48.56 50.3241 48.7497 50.3684L55.6159 51.9672C55.6428 51.9737 55.6696 51.9767 55.6961 51.9767Z" fill="#2D2D2D"/>
</g>
<defs>
<filter id="filter0_d_257_1262" x="0" y="0" width="78" height="78" filterUnits="userSpaceOnUse" color-interpolation-filters="sRGB">
<feFlood flood-opacity="0" result="BackgroundImageFix"/>
<feColorMatrix in="SourceAlpha" type="matrix" values="0 0 0 0 0 0 0 0 0 0 0 0 0 0 0 0 0 0 127 0" result="hardAlpha"/>
<feOffset dy="4"/>
<feGaussianBlur stdDeviation="2"/>
<feColorMatrix type="matrix" values="0 0 0 0 0 0 0 0 0 0 0 0 0 0 0 0 0 0 0.25 0"/>
<feBlend mode="normal" in2="BackgroundImageFix" result="effect1_dropShadow_257_1262"/>
<feBlend mode="normal" in="SourceGraphic" in2="effect1_dropShadow_257_1262" result="shape"/>
</filter>
<clipPath id="clip0_257_1262">
<rect width="70" height="70" fill="white" transform="translate(4)"/>
</clipPath>
</defs>
</svg>
