<?xml version="1.0" encoding="UTF-8"?>
<!DOCTYPE svg PUBLIC "-//W3C//DTD SVG 1.1//EN" "http://www.w3.org/Graphics/SVG/1.1/DTD/svg11.dtd">
<!-- Creator: CorelDRAW X7 -->
<svg xmlns="http://www.w3.org/2000/svg" xml:space="preserve" width="1.81113in" height="1.81113in" version="1.1" style="shape-rendering:geometricPrecision; text-rendering:geometricPrecision; image-rendering:optimizeQuality; fill-rule:evenodd; clip-rule:evenodd"
viewBox="0 0 1811 1811"
 xmlns:xlink="http://www.w3.org/1999/xlink">
 <defs>
  <style type="text/css">
   <![CDATA[
    .fil3 {fill:none}
    .fil2 {fill:#B6883C}
    .fil0 {fill:#E3E3E6}
    .fil1 {fill:#231F20;fill-opacity:0.200000}
   ]]>
  </style>
   <clipPath id="id0">
    <path d="M0 1811l1811 0 0 -1811 -1811 0 0 1811z"/>
   </clipPath>
 </defs>
 <g id="Layer_x0020_1">
  <metadata id="CorelCorpID_0Corel-Layer"/>
  <g>
  </g>
  <g style="clip-path:url(#id0)">
   <g>
    <path class="fil0" d="M906 1811c500,0 905,-405 905,-905 0,-501 -405,-906 -905,-906 -501,0 -906,405 -906,906 0,500 405,905 906,905z"/>
    <path class="fil1" d="M1421 1228c-57,-42 -238,-119 -238,-119 0,0 -198,153 -396,-169 -230,-374 -334,-431 -334,-431 0,0 -113,114 -113,227 0,113 113,283 113,622 0,31 25,57 56,57 32,0 57,-26 57,-57l0 -396c0,0 113,0 226,227 114,226 227,226 340,226 113,0 340,-6 340,-48 0,-48 11,-94 -51,-139z"/>
    <path class="fil2" d="M453 453c0,0 -113,113 -113,226 0,113 113,283 113,623l113 0 0 -396c0,0 113,0 226,226 114,226 227,226 340,226 113,0 340,-5 340,-48 0,-48 11,-93 -51,-138 -57,-43 -238,-119 -238,-119 0,0 -198,153 -396,-170 -230,-374 -334,-430 -334,-430z"/>
    <path class="fil2" d="M566 1302c0,31 -25,56 -57,56 -31,0 -56,-25 -56,-56 0,-31 25,-57 56,-57 32,0 57,26 57,57z"/>
   </g>
  </g>
  <polygon class="fil3" points="0,1811 1811,1811 1811,0 0,0 "/>
 </g>
</svg>
