<svg width="78" height="78" viewBox="0 0 78 78" fill="none" xmlns="http://www.w3.org/2000/svg">
<g clip-path="url(#clip0_257_1172)" filter="url(#filter0_d_257_1172)">
<path d="M39 70C58.33 70 74 54.33 74 35C74 15.67 58.33 0 39 0C19.67 0 4 15.67 4 35C4 54.33 19.67 70 39 70Z" fill="#C75C5C"/>
<g opacity="0.2">
<path d="M58.9062 47.4688C56.7188 45.8281 49.7188 42.875 49.7188 42.875C49.7188 42.875 42.0625 48.7812 34.4062 36.3125C25.5469 21.875 21.5 19.6875 21.5 19.6875C21.5 19.6875 17.125 24.0625 17.125 28.4375C17.125 32.8125 21.5 39.375 21.5 52.5C21.5 53.7031 22.4844 54.6875 23.6875 54.6875C24.8906 54.6875 25.875 53.7031 25.875 52.5V37.1875C25.875 37.1875 30.25 37.1875 34.625 45.9375C39 54.6875 43.375 54.6875 47.75 54.6875C52.125 54.6875 60.875 54.4688 60.875 52.8281C60.875 50.9688 61.3125 49.2188 58.9062 47.4688Z" fill="#231F20"/>
</g>
<path d="M21.5 17.5C21.5 17.5 17.125 21.875 17.125 26.25C17.125 30.625 21.5 37.1875 21.5 50.3125H25.875V35C25.875 35 30.25 35 34.625 43.75C39 52.5 43.375 52.5 47.75 52.5C52.125 52.5 60.875 52.2812 60.875 50.6406C60.875 48.7812 61.3125 47.0313 58.9062 45.2813C56.7188 43.6406 49.7188 40.6875 49.7188 40.6875C49.7188 40.6875 42.0625 46.5938 34.4062 34.125C25.5469 19.6875 21.5 17.5 21.5 17.5Z" fill="white"/>
<path d="M25.875 50.3125C25.875 51.5156 24.8906 52.5 23.6875 52.5C22.4844 52.5 21.5 51.5156 21.5 50.3125C21.5 49.1094 22.4844 48.125 23.6875 48.125C24.8906 48.125 25.875 49.1094 25.875 50.3125Z" fill="white"/>
</g>
<defs>
<filter id="filter0_d_257_1172" x="0" y="0" width="78" height="78" filterUnits="userSpaceOnUse" color-interpolation-filters="sRGB">
<feFlood flood-opacity="0" result="BackgroundImageFix"/>
<feColorMatrix in="SourceAlpha" type="matrix" values="0 0 0 0 0 0 0 0 0 0 0 0 0 0 0 0 0 0 127 0" result="hardAlpha"/>
<feOffset dy="4"/>
<feGaussianBlur stdDeviation="2"/>
<feColorMatrix type="matrix" values="0 0 0 0 0 0 0 0 0 0 0 0 0 0 0 0 0 0 0.25 0"/>
<feBlend mode="normal" in2="BackgroundImageFix" result="effect1_dropShadow_257_1172"/>
<feBlend mode="normal" in="SourceGraphic" in2="effect1_dropShadow_257_1172" result="shape"/>
</filter>
<clipPath id="clip0_257_1172">
<rect width="70" height="70" fill="white" transform="translate(4)"/>
</clipPath>
</defs>
</svg>
