<svg width="78" height="78" viewBox="0 0 78 78" fill="none" xmlns="http://www.w3.org/2000/svg">
<g clip-path="url(#clip0_257_1182)" filter="url(#filter0_d_257_1182)">
<path d="M39 70C58.33 70 74 54.33 74 35C74 15.67 58.33 0 39 0C19.67 0 4 15.67 4 35C4 54.33 19.67 70 39 70Z" fill="#E0E0D1"/>
<g opacity="0.2">
<path d="M56.2812 18.5938C56.1719 18.5938 56.1719 18.5938 56.1719 18.5938H39.2188C38.7812 18.5938 37.9062 19.25 37.7969 19.3594L17.8906 39.2656C16.7969 40.3594 16.7969 42 17.8906 43.0938L33.0938 58.2969C33.6406 58.8438 34.2969 59.0625 34.9531 59.0625C35.6094 59.0625 36.375 58.8438 36.8125 58.2969L56.6094 38.5C56.7187 38.3906 57.375 37.5156 57.375 37.0781V19.9063C57.5938 19.1406 57.0469 18.5938 56.2812 18.5938ZM52.125 26.25C50.9219 26.25 49.9375 25.2656 49.9375 24.0625C49.9375 22.8594 50.9219 21.875 52.125 21.875C53.3281 21.875 54.3125 22.8594 54.3125 24.0625C54.3125 25.2656 53.3281 26.25 52.125 26.25Z" fill="#231F20"/>
</g>
<path d="M56.2812 16.4062C56.1719 16.4062 56.1719 16.4062 56.1719 16.4062H39.2188C38.7812 16.4062 37.9062 17.0625 37.7969 17.1719L17.8906 37.0781C16.7969 38.1719 16.7969 39.8125 17.8906 40.9063L33.0938 56.1094C33.6406 56.6562 34.2969 56.875 34.9531 56.875C35.6094 56.875 36.375 56.6562 36.8125 56.1094L56.6094 36.3125C56.7187 36.2031 57.375 35.3281 57.375 34.8906V17.7188C57.5938 16.9531 57.0469 16.4062 56.2812 16.4062ZM52.125 24.0625C50.9219 24.0625 49.9375 23.0781 49.9375 21.875C49.9375 20.6719 50.9219 19.6875 52.125 19.6875C53.3281 19.6875 54.3125 20.6719 54.3125 21.875C54.3125 23.0781 53.3281 24.0625 52.125 24.0625Z" fill="#C75C5C"/>
</g>
<defs>
<filter id="filter0_d_257_1182" x="0" y="0" width="78" height="78" filterUnits="userSpaceOnUse" color-interpolation-filters="sRGB">
<feFlood flood-opacity="0" result="BackgroundImageFix"/>
<feColorMatrix in="SourceAlpha" type="matrix" values="0 0 0 0 0 0 0 0 0 0 0 0 0 0 0 0 0 0 127 0" result="hardAlpha"/>
<feOffset dy="4"/>
<feGaussianBlur stdDeviation="2"/>
<feColorMatrix type="matrix" values="0 0 0 0 0 0 0 0 0 0 0 0 0 0 0 0 0 0 0.25 0"/>
<feBlend mode="normal" in2="BackgroundImageFix" result="effect1_dropShadow_257_1182"/>
<feBlend mode="normal" in="SourceGraphic" in2="effect1_dropShadow_257_1182" result="shape"/>
</filter>
<clipPath id="clip0_257_1182">
<rect width="70" height="70" fill="white" transform="translate(4)"/>
</clipPath>
</defs>
</svg>
