<?xml version="1.0" encoding="UTF-8"?>
<!DOCTYPE svg PUBLIC "-//W3C//DTD SVG 1.1//EN" "http://www.w3.org/Graphics/SVG/1.1/DTD/svg11.dtd">
<!-- Creator: CorelDRAW X7 -->
<svg xmlns="http://www.w3.org/2000/svg" xml:space="preserve" width="1.91129in" height="1.91129in" version="1.1" style="shape-rendering:geometricPrecision; text-rendering:geometricPrecision; image-rendering:optimizeQuality; fill-rule:evenodd; clip-rule:evenodd"
viewBox="0 0 1911 1911"
 xmlns:xlink="http://www.w3.org/1999/xlink">
 <defs>
  <style type="text/css">
   <![CDATA[
    .fil3 {fill:none}
    .fil2 {fill:#B6883C}
    .fil0 {fill:#E3E3E6}
    .fil1 {fill:#231F20;fill-opacity:0.200000}
   ]]>
  </style>
   <clipPath id="id0">
    <path d="M0 1911l1911 0 0 -1911 -1911 0 0 1911z"/>
   </clipPath>
 </defs>
 <g id="Layer_x0020_1">
  <metadata id="CorelCorpID_0Corel-Layer"/>
  <g>
  </g>
  <g style="clip-path:url(#id0)">
   <g>
    <path class="fil0" d="M956 1911c527,0 955,-428 955,-955 0,-528 -428,-956 -955,-956 -528,0 -956,428 -956,956 0,527 428,955 956,955z"/>
    <path class="fil1" d="M1427 508c-2,0 -2,0 -2,0l-463 0c-12,0 -36,18 -39,21l-544 543c-30,30 -30,75 0,105l415 415c15,15 33,21 51,21 18,0 39,-6 51,-21l540 -541c3,-3 21,-27 21,-39l0 -468c6,-21 -9,-36 -30,-36zm-113 209c-33,0 -60,-27 -60,-60 0,-33 27,-60 60,-60 33,0 60,27 60,60 0,33 -27,60 -60,60z"/>
    <path class="fil2" d="M1427 448c-2,0 -2,0 -2,0l-463 0c-12,0 -36,18 -39,21l-544 543c-30,30 -30,75 0,105l415 415c15,15 33,21 51,21 18,0 39,-6 51,-21l540 -541c3,-3 21,-26 21,-38l0 -469c6,-21 -9,-36 -30,-36zm-113 209c-33,0 -60,-27 -60,-60 0,-33 27,-59 60,-59 33,0 60,26 60,59 0,33 -27,60 -60,60z"/>
   </g>
  </g>
  <polygon class="fil3" points="0,1911 1911,1911 1911,0 0,0 "/>
 </g>
</svg>
