<svg width="78" height="78" viewBox="0 0 78 78" fill="none" xmlns="http://www.w3.org/2000/svg">
<g clip-path="url(#clip0_257_1308)" filter="url(#filter0_d_257_1308)">
<path d="M39 70C58.33 70 74 54.33 74 35C74 15.67 58.33 0 39 0C19.67 0 4 15.67 4 35C4 54.33 19.67 70 39 70Z" fill="#76C2AF"/>
<g opacity="0.2">
<path d="M58.5781 50.5312L43.1562 35.1094C42.0625 34.0156 40.4219 33.5781 39 34.0156L30.1406 25.2656L26.8594 18.8125L20.4062 15.5312L17.2344 18.5938L20.5156 25.0469L26.9688 28.3281L35.8281 37.0781C35.3906 38.5 35.8281 40.1406 36.9219 41.2344L52.3438 56.6562C54.0938 58.4062 56.8281 58.4062 58.5781 56.6562C60.3281 55.0156 60.3281 52.2812 58.5781 50.5312Z" fill="#231F20"/>
</g>
<path d="M41.7344 40.7969L24.125 23.4062L27.2969 20.3438L44.9063 37.7344L41.7344 40.7969Z" fill="#4F5D73"/>
<path d="M58.5781 54.5781C56.8281 56.3281 54.0938 56.3281 52.3438 54.5781L36.9219 39.1562C35.1719 37.4062 35.1719 34.6719 36.9219 32.9219C38.6719 31.1719 41.4062 31.1719 43.1562 32.9219L58.5781 48.3438C60.3281 50.0938 60.3281 52.8281 58.5781 54.5781Z" fill="#F5CF87"/>
<g opacity="0.2">
<path d="M62.2969 20.125L55.1875 27.2344C53.4375 28.9844 50.7031 28.9844 48.9531 27.2344C47.2031 25.4844 47.2031 22.75 48.9531 21L56.0625 13.8906C54.8594 13.4531 53.5469 13.125 52.125 13.125C46.1094 13.125 41.1875 18.0469 41.1875 24.0625C41.1875 25.4844 41.5156 26.7969 41.9531 28L29.9219 40.0312C28.6094 39.7031 27.2969 39.375 25.875 39.375C19.8594 39.375 14.9375 44.2969 14.9375 50.3125C14.9375 51.7344 15.2656 53.0469 15.7031 54.25L22.8125 47.1406C24.5625 45.3906 27.2969 45.3906 29.0469 47.1406C30.7969 48.8906 30.7969 51.625 29.0469 53.375L21.9375 60.4844C23.1406 60.9219 24.5625 61.25 25.875 61.25C31.8906 61.25 36.8125 56.3281 36.8125 50.3125C36.8125 48.8906 36.4844 47.5781 36.0469 46.375L48.0781 34.3438C49.2812 34.7812 50.7031 35.1094 52.0156 35.1094C58.0312 35.1094 62.9531 30.1875 62.9531 24.1719C63.0625 22.6406 62.7344 21.3281 62.2969 20.125Z" fill="#231F20"/>
</g>
<path d="M42.4799 25.3326L29.2549 38.5576L35.442 44.7447L48.667 31.5198L42.4799 25.3326Z" fill="white"/>
<path d="M26.9688 26.1406L20.5156 22.8594L17.2344 16.4062L20.2969 13.2344L26.75 16.625L30.1406 23.0781L26.9688 26.1406Z" fill="#4F5D73"/>
<path d="M55.1875 24.9375C53.4375 26.6875 50.7031 26.6875 48.9531 24.9375C47.2031 23.1875 47.2031 20.4531 48.9531 18.7031L56.0625 11.5938C54.8594 11.2656 53.5469 10.9375 52.125 10.9375C46.1094 10.9375 41.1875 15.8594 41.1875 21.875C41.1875 27.8906 46.1094 32.8125 52.125 32.8125C58.1406 32.8125 63.0625 27.8906 63.0625 21.875C63.0625 20.4531 62.7344 19.1406 62.2969 17.9375L55.1875 24.9375Z" fill="white"/>
<path d="M22.8125 45.0625C24.5625 43.3125 27.2969 43.3125 29.0469 45.0625C30.7969 46.8125 30.7969 49.5469 29.0469 51.2969L21.9375 58.4063C23.1406 58.8438 24.5625 59.1719 25.875 59.1719C31.8906 59.1719 36.8125 54.25 36.8125 48.2344C36.8125 42.2188 31.8906 37.2969 25.875 37.2969C19.8594 37.2969 14.9375 42.2188 14.9375 48.2344C14.9375 49.6562 15.2656 50.9688 15.7031 52.1719L22.8125 45.0625Z" fill="white"/>
</g>
<defs>
<filter id="filter0_d_257_1308" x="0" y="0" width="78" height="78" filterUnits="userSpaceOnUse" color-interpolation-filters="sRGB">
<feFlood flood-opacity="0" result="BackgroundImageFix"/>
<feColorMatrix in="SourceAlpha" type="matrix" values="0 0 0 0 0 0 0 0 0 0 0 0 0 0 0 0 0 0 127 0" result="hardAlpha"/>
<feOffset dy="4"/>
<feGaussianBlur stdDeviation="2"/>
<feColorMatrix type="matrix" values="0 0 0 0 0 0 0 0 0 0 0 0 0 0 0 0 0 0 0.25 0"/>
<feBlend mode="normal" in2="BackgroundImageFix" result="effect1_dropShadow_257_1308"/>
<feBlend mode="normal" in="SourceGraphic" in2="effect1_dropShadow_257_1308" result="shape"/>
</filter>
<clipPath id="clip0_257_1308">
<rect width="70" height="70" fill="white" transform="translate(4)"/>
</clipPath>
</defs>
</svg>
