<svg width="35" height="35" viewBox="0 0 35 35" fill="none" xmlns="http://www.w3.org/2000/svg">
<g id="Group 207">
<g id="Group 202">
<circle id="Ellipse 39" cx="17.5" cy="17.5" r="17.5" fill="#D9D9D9"/>
<rect id="Rectangle 122" x="9" y="9" width="17" height="17" rx="5" fill="white"/>
<path id="Vector" d="M17.8771 22.7238C15.1835 22.7238 13 20.5471 13 17.8619C13 15.1767 15.1835 13 17.8771 13C20.5708 13 22.7543 15.1767 22.7543 17.8619C22.7543 20.5471 20.5708 22.7238 17.8771 22.7238ZM17.8771 21.7514C18.9119 21.7514 19.9043 21.3416 20.6361 20.6122C21.3678 19.8828 21.7788 18.8934 21.7788 17.8619C21.7788 16.8303 21.3678 15.841 20.6361 15.1116C19.9043 14.3822 18.9119 13.9724 17.8771 13.9724C16.8423 13.9724 15.8499 14.3822 15.1182 15.1116C14.3865 15.841 13.9754 16.8303 13.9754 17.8619C13.9754 18.8934 14.3865 19.8828 15.1182 20.6122C15.8499 21.3416 16.8423 21.7514 17.8771 21.7514ZM17.3894 19.3205H18.3648V20.2928H17.3894V19.3205ZM17.3894 15.4309H18.3648V18.3481H17.3894V15.4309Z" fill="#D9D9D9"/>
</g>
</g>
</svg>
