<svg width="24" height="24" viewBox="0 0 24 24" fill="none" xmlns="http://www.w3.org/2000/svg">
<path d="M24 16.7586H3.3103V6H24V16.7586ZM4.13789 15.931H23.1724V6.82759H4.13789V15.931Z" fill="white"/>
<path d="M3.7241 19.6552C3.49568 19.6552 3.3103 19.4702 3.3103 19.2414V16.3448C3.3103 16.116 3.49568 15.931 3.7241 15.931C3.95251 15.931 4.13789 16.116 4.13789 16.3448V19.2414C4.13789 19.4702 3.95251 19.6552 3.7241 19.6552Z" fill="white"/>
<path d="M7.86196 22.9655C8.77609 22.9655 9.51713 22.2245 9.51713 21.3103C9.51713 20.3962 8.77609 19.6552 7.86196 19.6552C6.94783 19.6552 6.20679 20.3962 6.20679 21.3103C6.20679 22.2245 6.94783 22.9655 7.86196 22.9655Z" fill="#3C3B3B"/>
<path d="M17.7931 22.9655C18.7072 22.9655 19.4483 22.2245 19.4483 21.3103C19.4483 20.3962 18.7072 19.6552 17.7931 19.6552C16.879 19.6552 16.1379 20.3962 16.1379 21.3103C16.1379 22.2245 16.879 22.9655 17.7931 22.9655Z" fill="#3C3B3B"/>
<path d="M21.5172 19.6551H3.7241C3.49568 19.6551 3.3103 19.4701 3.3103 19.2413C3.3103 19.0125 3.49568 18.8275 3.7241 18.8275H21.5172C21.746 18.8275 21.931 19.0125 21.931 19.2413C21.931 19.4701 21.746 19.6551 21.5172 19.6551Z" fill="white"/>
<path d="M13.6552 11.793C16.6261 11.793 19.0345 9.38465 19.0345 6.41373C19.0345 3.44282 16.6261 1.03442 13.6552 1.03442C10.6843 1.03442 8.27588 3.44282 8.27588 6.41373C8.27588 9.38465 10.6843 11.793 13.6552 11.793Z" fill="#B5883B"/>
<path d="M13.6552 10.1379C13.4268 10.1379 13.2415 9.95289 13.2415 9.72406V3.10337C13.2415 2.87454 13.4268 2.68958 13.6552 2.68958C13.8837 2.68958 14.069 2.87454 14.069 3.10337V9.72406C14.069 9.95289 13.8837 10.1379 13.6552 10.1379Z" fill="white"/>
<path d="M10.7586 6.41369C10.6527 6.41369 10.5468 6.37314 10.4661 6.29245C10.3043 6.13066 10.3043 5.86914 10.4661 5.70735L13.3626 2.8108C13.5244 2.649 13.7859 2.649 13.9477 2.8108C14.1095 2.97259 14.1095 3.23411 13.9477 3.3959L11.0512 6.29245C10.9705 6.37314 10.8646 6.41369 10.7586 6.41369Z" fill="white"/>
<path d="M16.5517 6.41369C16.4457 6.41369 16.3398 6.37314 16.2591 6.29245L13.3626 3.3959C13.2008 3.23411 13.2008 2.97259 13.3626 2.8108C13.5243 2.649 13.7859 2.649 13.9477 2.8108L16.8442 5.70735C17.006 5.86914 17.006 6.13066 16.8442 6.29245C16.7635 6.37314 16.6576 6.41369 16.5517 6.41369Z" fill="white"/>
<path d="M3.72421 3.10334H1.65525C1.42683 3.10334 1.24146 2.91838 1.24146 2.68955C1.24146 2.46072 1.42683 2.27576 1.65525 2.27576H3.72421C3.95263 2.27576 4.13801 2.46072 4.13801 2.68955C4.13801 2.91838 3.95263 3.10334 3.72421 3.10334Z" fill="white"/>
<path d="M3.7241 6.82748C3.49568 6.82748 3.3103 6.64252 3.3103 6.41369V2.68955C3.3103 2.46072 3.49568 2.27576 3.7241 2.27576C3.95251 2.27576 4.13789 2.46072 4.13789 2.68955V6.41369C4.13789 6.64252 3.95251 6.82748 3.7241 6.82748Z" fill="white"/>
<path d="M1.24138 3.931C1.92697 3.931 2.48276 3.37522 2.48276 2.68962C2.48276 2.00403 1.92697 1.44824 1.24138 1.44824C0.555784 1.44824 0 2.00403 0 2.68962C0 3.37522 0.555784 3.931 1.24138 3.931Z" fill="#B5883B"/>
</svg>
