<svg width="25" height="24" viewBox="0 0 25 24" fill="none" xmlns="http://www.w3.org/2000/svg">
<g id="Profile" clip-path="url(#clip0_96_25)">
<path id="Vector" d="M4.5 22C4.5 19.8783 5.34285 17.8434 6.84315 16.3431C8.34344 14.8429 10.3783 14 12.5 14C14.6217 14 16.6566 14.8429 18.1569 16.3431C19.6571 17.8434 20.5 19.8783 20.5 22H18.5C18.5 20.4087 17.8679 18.8826 16.7426 17.7574C15.6174 16.6321 14.0913 16 12.5 16C10.9087 16 9.38258 16.6321 8.25736 17.7574C7.13214 18.8826 6.5 20.4087 6.5 22H4.5ZM12.5 13C9.185 13 6.5 10.315 6.5 7C6.5 3.685 9.185 1 12.5 1C15.815 1 18.5 3.685 18.5 7C18.5 10.315 15.815 13 12.5 13ZM12.5 11C14.71 11 16.5 9.21 16.5 7C16.5 4.79 14.71 3 12.5 3C10.29 3 8.5 4.79 8.5 7C8.5 9.21 10.29 11 12.5 11Z" fill="#D9D9D9"/>
</g>
<defs>
<clipPath id="clip0_96_25">
<rect width="24" height="24" fill="white" transform="translate(0.5)"/>
</clipPath>
</defs>
</svg>
