<svg width="20" height="20" viewBox="0 0 20 20" fill="none" xmlns="http://www.w3.org/2000/svg">
<path d="M17.0582 17.9419C17.3022 18.186 17.698 18.186 17.9421 17.9419C18.1862 17.6979 18.1862 17.3021 17.9421 17.058L17.0582 17.9419ZM14.0042 14.8879L17.0582 17.9419L17.9421 17.058L14.888 14.004L14.0042 14.8879Z" fill="#B5883B"/>
<path d="M2.76311 11.4843L3.37159 11.3415L2.76311 11.4843ZM2.76311 6.93667L3.37159 7.0794L2.76311 6.93667ZM15.6578 6.93667L16.2663 6.79394L15.6578 6.93667ZM15.6578 11.4842L15.0492 11.3415L15.6578 11.4842ZM11.4842 15.6578L11.3415 15.0492L11.4842 15.6578ZM6.93667 15.6578L6.79394 16.2663L6.93667 15.6578ZM6.93667 2.76311L6.79393 2.15462L6.93667 2.76311ZM11.4842 2.76311L11.6269 2.15462L11.4842 2.76311ZM3.37159 11.3415C3.0428 9.93983 3.0428 8.48108 3.37159 7.0794L2.15462 6.79393C1.78179 8.38333 1.78179 10.0375 2.15462 11.6269L3.37159 11.3415ZM15.0492 7.0794C15.3781 8.48108 15.3781 9.93983 15.0492 11.3415L16.2663 11.6269C16.6391 10.0375 16.6391 8.38333 16.2663 6.79394L15.0492 7.0794ZM11.3415 15.0492C9.93983 15.3781 8.48108 15.3781 7.0794 15.0492L6.79394 16.2663C8.38333 16.6391 10.0375 16.6391 11.6269 16.2663L11.3415 15.0492ZM7.0794 3.37159C8.48108 3.0428 9.93983 3.0428 11.3415 3.37159L11.6269 2.15462C10.0375 1.78179 8.38333 1.78179 6.79393 2.15462L7.0794 3.37159ZM7.0794 15.0492C5.23964 14.6177 3.80314 13.1812 3.37159 11.3415L2.15462 11.6269C2.69459 13.9289 4.49198 15.7263 6.79394 16.2663L7.0794 15.0492ZM11.6269 16.2663C13.9289 15.7263 15.7263 13.9289 16.2663 11.6269L15.0492 11.3415C14.6177 13.1812 13.1812 14.6177 11.3415 15.0492L11.6269 16.2663ZM11.3415 3.37159C13.1812 3.80314 14.6177 5.23964 15.0492 7.0794L16.2663 6.79394C15.7263 4.49197 13.9289 2.69459 11.6269 2.15462L11.3415 3.37159ZM6.79393 2.15462C4.49198 2.69459 2.69459 4.49198 2.15462 6.79393L3.37159 7.0794C3.80314 5.23963 5.23964 3.80314 7.0794 3.37159L6.79393 2.15462Z" fill="#B5883B"/>
<path d="M2.76311 11.4843L3.37159 11.3415L2.76311 11.4843ZM3.37159 7.0794C3.45042 6.74334 3.24189 6.40701 2.90584 6.32818C2.56978 6.24935 2.23345 6.45788 2.15462 6.79393L3.37159 7.0794ZM15.6578 6.93667L16.2663 6.79394L15.6578 6.93667ZM15.6578 11.4842L15.0492 11.3415L15.6578 11.4842ZM11.4842 15.6578L11.3415 15.0492L11.4842 15.6578ZM6.93667 15.6578L6.79394 16.2663L6.93667 15.6578ZM6.79393 2.15462C6.45788 2.23345 6.24936 2.56978 6.32818 2.90583C6.40701 3.24189 6.74334 3.45042 7.0794 3.37159L6.79393 2.15462ZM11.4842 2.76311L11.6269 2.15462L11.4842 2.76311ZM3.37159 11.3415C3.0428 9.93983 3.0428 8.48108 3.37159 7.0794L2.15462 6.79393C1.78179 8.38333 1.78179 10.0375 2.15462 11.6269L3.37159 11.3415ZM15.0492 7.0794C15.3781 8.48108 15.3781 9.93983 15.0492 11.3415L16.2663 11.6269C16.6391 10.0375 16.6391 8.38333 16.2663 6.79394L15.0492 7.0794ZM11.3415 15.0492C9.93983 15.3781 8.48108 15.3781 7.0794 15.0492L6.79394 16.2663C8.38333 16.6391 10.0375 16.6391 11.6269 16.2663L11.3415 15.0492ZM7.0794 3.37159C8.48108 3.0428 9.93983 3.0428 11.3415 3.37159L11.6269 2.15462C10.0375 1.78179 8.38333 1.78179 6.79393 2.15462L7.0794 3.37159ZM7.0794 15.0492C5.23964 14.6177 3.80314 13.1812 3.37159 11.3415L2.15462 11.6269C2.69459 13.9289 4.49198 15.7263 6.79394 16.2663L7.0794 15.0492ZM11.6269 16.2663C13.9289 15.7263 15.7263 13.9289 16.2663 11.6269L15.0492 11.3415C14.6177 13.1812 13.1812 14.6177 11.3415 15.0492L11.6269 16.2663ZM11.3415 3.37159C13.1812 3.80314 14.6177 5.23964 15.0492 7.0794L16.2663 6.79394C15.7263 4.49197 13.9289 2.69459 11.6269 2.15462L11.3415 3.37159Z" fill="black"/>
</svg>
