<svg width="25" height="24" viewBox="0 0 25 24" fill="none" xmlns="http://www.w3.org/2000/svg">
<g id="Store Selected" clip-path="url(#clip0_96_114)">
<path id="Vector" d="M21.5 11.646V21C21.5 21.2652 21.3946 21.5196 21.2071 21.7071C21.0196 21.8946 20.7652 22 20.5 22H4.5C4.23479 22 3.98043 21.8946 3.7929 21.7071C3.60536 21.5196 3.5 21.2652 3.5 21V11.646C2.85432 10.916 2.49856 9.97461 2.5 9V3C2.5 2.73478 2.60536 2.48043 2.7929 2.29289C2.98043 2.10536 3.23479 2 3.5 2H21.5C21.7652 2 22.0196 2.10536 22.2071 2.29289C22.3946 2.48043 22.5 2.73478 22.5 3V9C22.5 10.014 22.122 10.94 21.5 11.646ZM14.5 9C14.5 8.73478 14.6054 8.48043 14.7929 8.29289C14.9804 8.10536 15.2348 8 15.5 8C15.7652 8 16.0196 8.10536 16.2071 8.29289C16.3946 8.48043 16.5 8.73478 16.5 9C16.5 9.53043 16.7107 10.0391 17.0858 10.4142C17.4609 10.7893 17.9696 11 18.5 11C19.0304 11 19.5391 10.7893 19.9142 10.4142C20.2893 10.0391 20.5 9.53043 20.5 9V4H4.5V9C4.5 9.53043 4.71072 10.0391 5.08579 10.4142C5.46086 10.7893 5.96957 11 6.5 11C7.03044 11 7.53914 10.7893 7.91422 10.4142C8.28929 10.0391 8.5 9.53043 8.5 9C8.5 8.73478 8.60536 8.48043 8.7929 8.29289C8.98043 8.10536 9.23479 8 9.5 8C9.76522 8 10.0196 8.10536 10.2071 8.29289C10.3946 8.48043 10.5 8.73478 10.5 9C10.5 9.53043 10.7107 10.0391 11.0858 10.4142C11.4609 10.7893 11.9696 11 12.5 11C13.0304 11 13.5391 10.7893 13.9142 10.4142C14.2893 10.0391 14.5 9.53043 14.5 9Z" fill="#B5883B"/>
</g>
<defs>
<clipPath id="clip0_96_114">
<rect width="24" height="24" fill="white" transform="translate(0.5)"/>
</clipPath>
</defs>
</svg>
