<svg width="45" height="45" viewBox="0 0 45 45" fill="none" xmlns="http://www.w3.org/2000/svg">
<g id="add-svgrepo-com">
<path id="Vector" d="M38.7133 28.218C37.4918 33.4256 33.4256 37.4917 28.218 38.7133C24.4569 39.5955 20.5431 39.5955 16.7821 38.7133C11.5744 37.4917 7.5082 33.4256 6.28665 28.218C5.40445 24.4569 5.40445 20.5431 6.28665 16.7821C7.5082 11.5744 11.5744 7.50818 16.7821 6.28664C20.5431 5.40445 24.4569 5.40445 28.218 6.28664C33.4256 7.50818 37.4918 11.5744 38.7133 16.782C39.5955 20.5431 39.5955 24.4569 38.7133 28.218Z" stroke="#B5883B" stroke-width="1.5"/>
<path id="Vector_2" d="M38.7133 28.218C39.5955 24.4569 39.5955 20.5431 38.7133 16.782C37.4918 11.5744 33.4256 7.50818 28.218 6.28664C24.4569 5.40445 20.5431 5.40445 16.7821 6.28664C11.5744 7.50818 7.5082 11.5744 6.28665 16.7821C5.40445 20.5431 5.40445 24.4569 6.28665 28.218C7.5082 33.4256 11.5744 37.4917 16.7821 38.7133" stroke="black" stroke-width="1.5" stroke-linecap="round"/>
<path id="Vector_3" d="M27.1875 22.5H17.8125M22.5 27.1875V17.8125" stroke="#B5883B" stroke-width="1.5" stroke-linecap="round"/>
</g>
</svg>
