<svg width="45" height="45" viewBox="0 0 45 45" fill="none" xmlns="http://www.w3.org/2000/svg">
<g id="arrow-top-3-svgrepo-com">
<path id="Vector" d="M22.5 29.0625V15.9375M22.5 15.9375L17.8125 20.625M22.5 15.9375L27.1875 20.625" stroke="#B5883B" stroke-width="1.5" stroke-linecap="round" stroke-linejoin="round"/>
<path id="Vector_2" d="M28.218 6.28662C33.4256 7.50818 37.4917 11.5743 38.7133 16.7819C39.5955 20.543 39.5955 24.4569 38.7133 28.2179C37.4917 33.4255 33.4256 37.4917 28.218 38.7133C24.4569 39.5955 20.5431 39.5955 16.7821 38.7133C11.5744 37.4917 7.50818 33.4256 6.28664 28.2179C5.40445 24.4569 5.40445 20.543 6.28664 16.7819C7.50818 11.5743 11.5744 7.50818 16.782 6.28662C20.5431 5.40443 24.4569 5.40443 28.218 6.28662Z" stroke="#B5883B" stroke-width="1.5"/>
<path id="Vector_3" d="M28.5488 5.95581C24.7877 5.07362 20.8739 5.07362 17.1129 5.95581C11.9052 7.17737 7.83899 11.2435 6.61745 16.4511C5.73526 20.2122 5.73526 24.1261 6.61745 27.8871C7.83899 33.0947 11.9052 37.1609 17.1129 38.3825C20.8739 39.2647 24.7877 39.2647 28.5488 38.3825C33.7564 37.1609 37.8226 33.0947 39.0441 27.8871" stroke="black" stroke-width="1.5" stroke-linecap="round"/>
</g>
</svg>
