<svg width="45" height="45" viewBox="0 0 45 45" fill="none" xmlns="http://www.w3.org/2000/svg">
<g id="discovery-svgrepo-com">
<path id="Vector" d="M19.0909 21.1798C19.4721 20.2269 20.2271 19.4719 21.18 19.0907L25.0007 17.5624C26.5313 16.9502 28.0502 18.4691 27.438 19.9997L25.9097 23.8204C25.5285 24.7733 24.7735 25.5283 23.8206 25.9095L19.9999 27.4376C18.4693 28.05 16.9504 26.5311 17.5626 25.0005L19.0909 21.1798Z" stroke="#B5883B" stroke-width="1.5" stroke-linecap="round" stroke-linejoin="round"/>
<path id="Vector_2" d="M6.28662 16.7819C7.50818 11.5743 11.5743 7.5082 16.7819 6.28664C20.543 5.40445 24.4569 5.40445 28.2179 6.28664C33.4255 7.5082 37.4917 11.5743 38.7133 16.7819C39.5955 20.543 39.5955 24.4569 38.7133 28.2179C37.4917 33.4256 33.4256 37.4918 28.2179 38.7133C24.4569 39.5955 20.543 39.5955 16.7819 38.7133C11.5743 37.4918 7.50818 33.4256 6.28662 28.2179C5.40443 24.4569 5.40443 20.543 6.28662 16.7819Z" stroke="#B5883B" stroke-width="1.5"/>
<path id="Vector_3" d="M6.28662 16.1203C5.40443 19.8814 5.40443 23.7953 6.28662 27.5563C7.50818 32.764 11.5743 36.8301 16.7819 38.0517C20.543 38.9339 24.4569 38.9339 28.2179 38.0517C33.4256 36.8301 37.4917 32.7639 38.7133 27.5563C39.5955 23.7953 39.5955 19.8814 38.7133 16.1203C37.4917 10.9127 33.4255 6.84658 28.2179 5.62502" stroke="black" stroke-width="1.5" stroke-linecap="round"/>
</g>
</svg>
