<?xml version="1.0" encoding="UTF-8"?>
<!DOCTYPE svg PUBLIC "-//W3C//DTD SVG 1.1//EN" "http://www.w3.org/Graphics/SVG/1.1/DTD/svg11.dtd">
<!-- Creator: CorelDRAW X7 -->
<svg xmlns="http://www.w3.org/2000/svg" xml:space="preserve" width="1.83478in" height="1.83478in" version="1.1" style="shape-rendering:geometricPrecision; text-rendering:geometricPrecision; image-rendering:optimizeQuality; fill-rule:evenodd; clip-rule:evenodd"
viewBox="0 0 1835 1835"
 xmlns:xlink="http://www.w3.org/1999/xlink">
 <defs>
  <style type="text/css">
   <![CDATA[
    .fil4 {fill:#B6883C}
    .fil0 {fill:#E3E3E6}
    .fil2 {fill:white}
    .fil3 {fill:#231F20;fill-opacity:0.200000}
    .fil1 {fill:lightgrey;fill-opacity:0.200000}
   ]]>
  </style>
 </defs>
 <g id="Layer_x0020_1">
  <metadata id="CorelCorpID_0Corel-Layer"/>
  <g id="_2377073135376">
   <circle class="fil0" cx="917" cy="917" r="917"/>
   <path class="fil1" d="M1491 1433c0,63 -52,115 -115,115l-917 0c-63,0 -115,-52 -115,-115l0 -802c0,-63 52,-115 115,-115l917 0c63,0 115,52 115,115l0 802z"/>
   <path class="fil2" d="M1491 1376c0,63 -52,115 -115,115l-917 0c-63,0 -115,-52 -115,-115l0 -803c0,-63 52,-114 115,-114l917 0c63,0 115,51 115,114l0 803z"/>
   <path class="fil3" d="M1491 1319c0,63 -52,114 -115,114l-917 0c-63,0 -115,-51 -115,-114l0 -803c0,-63 52,-115 115,-115l917 0c63,0 115,52 115,115l0 803z"/>
   <path class="fil2" d="M1491 1261c0,63 -52,115 -115,115l-917 0c-63,0 -115,-52 -115,-115l0 -802c0,-63 52,-115 115,-115l917 0c63,0 115,52 115,115l0 802z"/>
   <rect class="fil4" x="459" y="688" width="344" height="344"/>
   <rect class="fil4" x="1032" y="774" width="344.021" height="28.6702"/>
   <rect class="fil4" x="1032" y="717" width="344.021" height="28.6702"/>
   <rect class="fil4" x="917" y="688" width="86.0071" height="114.674"/>
   <rect class="fil4" x="917" y="860" width="458.695" height="28.6702"/>
   <rect class="fil4" x="917" y="917" width="458.695" height="28.6702"/>
   <rect class="fil4" x="917" y="975" width="458.695" height="28.6702"/>
   <rect class="fil4" x="917" y="1032" width="458.695" height="28.6702"/>
   <rect class="fil4" x="1029" y="1118" width="346.889" height="28.6702"/>
   <rect class="fil4" x="459" y="1118" width="344.021" height="28.6702"/>
   <rect class="fil4" x="459" y="1175" width="344.021" height="28.6702"/>
   <rect class="fil4" x="459" y="1233" width="344.021" height="28.6702"/>
   <rect class="fil4" x="459" y="1290" width="344.021" height="28.6702"/>
   <rect class="fil4" x="917" y="1175" width="458.695" height="28.6702"/>
   <rect class="fil4" x="917" y="1233" width="458.695" height="28.6702"/>
   <rect class="fil4" x="917" y="1290" width="458.695" height="28.6702"/>
   <circle class="fil2" cx="688" cy="803" r="57"/>
   <rect class="fil4" x="459" y="459" width="917" height="115"/>
   <path class="fil2" d="M774 1003l0 -68 -23 -23c-14,-15 -37,-15 -51,0l-23 23 -55 -55c-29,-29 -74,-29 -100,0l-35 35 0 88 287 0z"/>
  </g>
 </g>
</svg>
