<svg width="78" height="78" viewBox="0 0 78 78" fill="none" xmlns="http://www.w3.org/2000/svg">
<g clip-path="url(#clip0_164_566)" filter="url(#filter0_d_164_566)">
<path d="M39 70C58.33 70 74 54.33 74 35C74 15.67 58.33 0 39 0C19.67 0 4 15.67 4 35C4 54.33 19.67 70 39 70Z" fill="#C75C5C"/>
<g opacity="0.2">
<path d="M60.875 54.6875C60.875 57.0938 58.9062 59.0625 56.5 59.0625H21.5C19.0938 59.0625 17.125 57.0938 17.125 54.6875V24.0625C17.125 21.6562 19.0938 19.6875 21.5 19.6875H56.5C58.9062 19.6875 60.875 21.6562 60.875 24.0625V54.6875Z" fill="#231F20"/>
</g>
<path d="M60.875 52.5C60.875 54.9062 58.9062 56.875 56.5 56.875H21.5C19.0938 56.875 17.125 54.9062 17.125 52.5V21.875C17.125 19.4688 19.0938 17.5 21.5 17.5H56.5C58.9062 17.5 60.875 19.4688 60.875 21.875V52.5Z" fill="#E0E0D1"/>
<g opacity="0.2">
<path d="M60.875 50.3125C60.875 52.7188 58.9062 54.6875 56.5 54.6875H21.5C19.0938 54.6875 17.125 52.7188 17.125 50.3125V19.6875C17.125 17.2812 19.0938 15.3125 21.5 15.3125H56.5C58.9062 15.3125 60.875 17.2812 60.875 19.6875V50.3125Z" fill="#231F20"/>
</g>
<path d="M60.875 48.125C60.875 50.5312 58.9062 52.5 56.5 52.5H21.5C19.0938 52.5 17.125 50.5312 17.125 48.125V17.5C17.125 15.0938 19.0938 13.125 21.5 13.125H56.5C58.9062 13.125 60.875 15.0938 60.875 17.5V48.125Z" fill="#E0E0D1"/>
<path d="M34.625 26.25H21.5V39.375H34.625V26.25Z" fill="#4F5D73"/>
<path d="M56.5 29.5312H43.375V30.625H56.5V29.5312Z" fill="#4F5D73"/>
<path d="M56.5 27.3438H43.375V28.4375H56.5V27.3438Z" fill="#4F5D73"/>
<path d="M42.2812 26.25H39V30.625H42.2812V26.25Z" fill="#4F5D73"/>
<path d="M56.5 32.8125H39V33.9062H56.5V32.8125Z" fill="#4F5D73"/>
<path d="M56.5 35H39V36.0938H56.5V35Z" fill="#4F5D73"/>
<path d="M56.5 37.1875H39V38.2812H56.5V37.1875Z" fill="#4F5D73"/>
<path d="M56.5 39.375H39V40.4688H56.5V39.375Z" fill="#4F5D73"/>
<path d="M56.5 42.6562H43.2656V43.75H56.5V42.6562Z" fill="#4F5D73"/>
<path d="M34.625 42.6562H21.5V43.75H34.625V42.6562Z" fill="#4F5D73"/>
<path d="M34.625 44.8438H21.5V45.9375H34.625V44.8438Z" fill="#4F5D73"/>
<path d="M34.625 47.0312H21.5V48.125H34.625V47.0312Z" fill="#4F5D73"/>
<path d="M34.625 49.2188H21.5V50.3125H34.625V49.2188Z" fill="#4F5D73"/>
<path d="M56.5 44.8438H39V45.9375H56.5V44.8438Z" fill="#4F5D73"/>
<path d="M56.5 47.0312H39V48.125H56.5V47.0312Z" fill="#4F5D73"/>
<path d="M56.5 49.2188H39V50.3125H56.5V49.2188Z" fill="#4F5D73"/>
<path d="M30.25 32.8125C31.4581 32.8125 32.4375 31.8331 32.4375 30.625C32.4375 29.4169 31.4581 28.4375 30.25 28.4375C29.0419 28.4375 28.0625 29.4169 28.0625 30.625C28.0625 31.8331 29.0419 32.8125 30.25 32.8125Z" fill="#E0E0D1"/>
<path d="M56.5 17.5H21.5V21.875H56.5V17.5Z" fill="#4F5D73"/>
<path d="M33.5312 38.2812V35.6562L32.6563 34.7812C32.1094 34.2344 31.2344 34.2344 30.6875 34.7812L29.8125 35.6562L27.7344 33.5781C26.6406 32.4844 24.8906 32.4844 23.9063 33.5781L22.5938 34.8906V38.2812H33.5312Z" fill="#E0E0D1"/>
</g>
<defs>
<filter id="filter0_d_164_566" x="0" y="0" width="78" height="78" filterUnits="userSpaceOnUse" color-interpolation-filters="sRGB">
<feFlood flood-opacity="0" result="BackgroundImageFix"/>
<feColorMatrix in="SourceAlpha" type="matrix" values="0 0 0 0 0 0 0 0 0 0 0 0 0 0 0 0 0 0 127 0" result="hardAlpha"/>
<feOffset dy="4"/>
<feGaussianBlur stdDeviation="2"/>
<feColorMatrix type="matrix" values="0 0 0 0 0 0 0 0 0 0 0 0 0 0 0 0 0 0 0.25 0"/>
<feBlend mode="normal" in2="BackgroundImageFix" result="effect1_dropShadow_164_566"/>
<feBlend mode="normal" in="SourceGraphic" in2="effect1_dropShadow_164_566" result="shape"/>
</filter>
<clipPath id="clip0_164_566">
<rect width="70" height="70" fill="white" transform="translate(4)"/>
</clipPath>
</defs>
</svg>
