<svg width="78" height="78" viewBox="0 0 78 78" fill="none" xmlns="http://www.w3.org/2000/svg">
<g clip-path="url(#clip0_164_637)" filter="url(#filter0_d_164_637)">
<path d="M39 70C58.33 70 74 54.33 74 35C74 15.67 58.33 0 39 0C19.67 0 4 15.67 4 35C4 54.33 19.67 70 39 70Z" fill="#4F5D73"/>
<path d="M21.5 39.375C21.5 40.5781 20.5156 41.5625 19.3125 41.5625C18.1094 41.5625 17.125 40.5781 17.125 39.375V37.1875C17.125 35.9844 18.1094 35 19.3125 35C20.5156 35 21.5 35.9844 21.5 37.1875V39.375Z" fill="#C75C5C"/>
<path d="M30.25 30.625C30.25 31.8281 29.2656 32.8125 28.0625 32.8125C26.8594 32.8125 25.875 31.8281 25.875 30.625V28.4375C25.875 27.2344 26.8594 26.25 28.0625 26.25C29.2656 26.25 30.25 27.2344 30.25 28.4375V30.625Z" fill="#F5CF87"/>
<path d="M52.125 30.625C52.125 31.8281 51.1406 32.8125 49.9375 32.8125C48.7344 32.8125 47.75 31.8281 47.75 30.625V28.4375C47.75 27.2344 48.7344 26.25 49.9375 26.25C51.1406 26.25 52.125 27.2344 52.125 28.4375V30.625Z" fill="#F5CF87"/>
<path d="M56.5 39.375C56.5 40.5781 57.4844 41.5625 58.6875 41.5625C59.8906 41.5625 60.875 40.5781 60.875 39.375V37.1875C60.875 35.9844 59.8906 35 58.6875 35C57.4844 35 56.5 35.9844 56.5 37.1875V39.375Z" fill="#76C2AF"/>
<g opacity="0.2">
<path d="M39 35.6562L57.5938 40.9063C60.7656 41.8906 60.875 40.4688 60.875 38.2813V39.5938C60.875 37.4063 60.9844 35.875 58.9062 34.6719L39 25.1562L19.0938 34.6719C17.125 35.875 17.125 37.4063 17.125 39.5938V38.2813C17.125 40.4688 17.2344 41.8906 20.4062 40.9063L39 35.6562Z" fill="#231F20"/>
</g>
<path d="M39 33.4688L57.5938 38.7188C60.7656 39.7031 60.875 38.2813 60.875 36.0938V37.4063C60.875 35.2188 60.9844 33.6875 58.9062 32.4844L39 22.9688L19.0938 32.4844C17.125 33.6875 17.125 35.2188 17.125 37.4063V36.0938C17.125 38.2813 17.2344 39.7031 20.4062 38.7188L39 33.4688Z" fill="#E0E0D1"/>
<g opacity="0.2">
<path d="M39 22.9688L33.5312 25.5937L33.9687 34.8906L39 33.4688L44.0312 34.8906L44.4688 25.5937L39 22.9688Z" fill="#231F20"/>
</g>
<path d="M42.2812 47.6875C42.2812 49.4375 41.9531 50.8594 40.0938 50.8594H37.9062C36.0469 50.8594 35.7188 49.4375 35.7188 47.6875L34.625 18.2656C34.625 16.5156 37.1406 10.8281 39 10.8281C40.8594 10.8281 43.375 16.5156 43.375 18.2656L42.2812 47.6875Z" fill="#E0E0D1"/>
<g opacity="0.2">
<path d="M51.0312 53.375L39 45.9375L26.9688 53.375C25.6562 54.3594 25.875 55.8906 25.875 57.6406C25.875 57.6406 26.0938 59.6094 28.0625 58.8437L39 54.6875L49.9375 58.9531C51.9062 59.7188 52.125 57.75 52.125 57.75C52.125 55.8906 52.2344 54.4687 51.0312 53.375Z" fill="#231F20"/>
</g>
<path d="M51.0312 51.1875L39 43.75L26.9688 51.1875C25.6562 52.1719 25.875 53.7031 25.875 55.4531C25.875 55.4531 26.0938 57.4219 28.0625 56.6562L39 52.5L49.9375 56.7656C51.9062 57.5313 52.125 55.5625 52.125 55.5625C52.125 53.7031 52.2344 52.2812 51.0312 51.1875Z" fill="#E0E0D1"/>
<g opacity="0.2">
<path d="M41.1875 55.7812C41.1875 56.9844 40.2031 57.9688 39 57.9688C37.7969 57.9688 36.8125 56.9844 36.8125 55.7812V50.3125C36.8125 49.1094 37.7969 48.125 39 48.125C40.2031 48.125 41.1875 49.1094 41.1875 50.3125V55.7812Z" fill="#231F20"/>
</g>
<path d="M41.1875 53.5938C41.1875 54.7969 40.2031 55.7812 39 55.7812C37.7969 55.7812 36.8125 54.7969 36.8125 53.5938V48.125C36.8125 46.9219 37.7969 45.9375 39 45.9375C40.2031 45.9375 41.1875 46.9219 41.1875 48.125V53.5938Z" fill="#E0E0D1"/>
<path d="M39 17.5C40.3125 17.5 41.4063 16.1875 41.9531 14.2188C41.0781 12.4688 39.875 10.9375 39 10.9375C38.125 10.9375 36.9219 12.4688 36.0469 14.2188C36.5938 16.1875 37.6875 17.5 39 17.5Z" fill="#77B3D4"/>
</g>
<defs>
<filter id="filter0_d_164_637" x="0" y="0" width="78" height="78" filterUnits="userSpaceOnUse" color-interpolation-filters="sRGB">
<feFlood flood-opacity="0" result="BackgroundImageFix"/>
<feColorMatrix in="SourceAlpha" type="matrix" values="0 0 0 0 0 0 0 0 0 0 0 0 0 0 0 0 0 0 127 0" result="hardAlpha"/>
<feOffset dy="4"/>
<feGaussianBlur stdDeviation="2"/>
<feColorMatrix type="matrix" values="0 0 0 0 0 0 0 0 0 0 0 0 0 0 0 0 0 0 0.25 0"/>
<feBlend mode="normal" in2="BackgroundImageFix" result="effect1_dropShadow_164_637"/>
<feBlend mode="normal" in="SourceGraphic" in2="effect1_dropShadow_164_637" result="shape"/>
</filter>
<clipPath id="clip0_164_637">
<rect width="70" height="70" fill="white" transform="translate(4)"/>
</clipPath>
</defs>
</svg>
