<svg width="78" height="78" viewBox="0 0 78 78" fill="none" xmlns="http://www.w3.org/2000/svg">
<g clip-path="url(#clip0_164_674)" filter="url(#filter0_d_164_674)">
<path d="M39 70C58.33 70 74 54.33 74 35C74 15.67 58.33 0 39 0C19.67 0 4 15.67 4 35C4 54.33 19.67 70 39 70Z" fill="#76C2AF"/>
<path opacity="0.2" d="M24.125 55.125C23.25 56 21.9375 56 21.0625 55.125C20.1875 54.25 20.1875 52.9375 21.0625 52.0625L31.8906 41.2344C32.7656 40.3594 34.0781 40.3594 34.9531 41.2344C35.8281 42.1094 35.8281 43.4219 34.9531 44.2969L24.125 55.125Z" fill="#231F20"/>
<path opacity="0.2" d="M38.0156 28.875C37.1406 29.75 35.8281 29.75 34.9531 28.875C34.0781 28 34.0781 26.6875 34.9531 25.8125L45.7813 14.9844C46.6563 14.1094 47.9688 14.1094 48.8438 14.9844C49.7188 15.8594 49.7188 17.1719 48.8438 18.0469L38.0156 28.875Z" fill="#231F20"/>
<path opacity="0.2" d="M50.4844 41.2344C49.6094 42.1094 48.2969 42.1094 47.4219 41.2344C46.5469 40.3594 46.5469 39.0469 47.4219 38.1719L58.25 27.3438C59.125 26.4688 60.4375 26.4688 61.3125 27.3438C62.1875 28.2188 62.1875 29.5312 61.3125 30.4062L50.4844 41.2344Z" fill="#231F20"/>
<path d="M24.125 52.9375C23.25 53.8125 21.9375 53.8125 21.0625 52.9375C20.1875 52.0625 20.1875 50.75 21.0625 49.875L31.8906 39.0469C32.7656 38.1719 34.0781 38.1719 34.9531 39.0469C35.8281 39.9219 35.8281 41.2344 34.9531 42.1094L24.125 52.9375Z" fill="#4F5D73"/>
<path d="M38.0156 26.6875C37.1406 27.5625 35.8281 27.5625 34.9531 26.6875C34.0781 25.8125 34.0781 24.5 34.9531 23.625L45.7813 12.7969C46.6563 11.9219 47.9688 11.9219 48.8438 12.7969C49.7188 13.6719 49.7188 14.9844 48.8438 15.8594L38.0156 26.6875Z" fill="#E0E0D1"/>
<path d="M50.4844 39.0469C49.6094 39.9219 48.2969 39.9219 47.4219 39.0469C46.5469 38.1719 46.5469 36.8594 47.4219 35.9844L58.25 25.1562C59.125 24.2813 60.4375 24.2813 61.3125 25.1562C62.1875 26.0312 62.1875 27.3437 61.3125 28.2187L50.4844 39.0469Z" fill="#E0E0D1"/>
<path opacity="0.2" d="M34.5156 21.1094L25.7656 29.8594C21.0625 34.5625 21.0625 42.2188 25.7656 46.9219L28.8281 49.9844C33.5313 54.6875 41.1875 54.6875 45.8906 49.9844L54.6406 41.2344L34.5156 21.1094Z" fill="#231F20"/>
<path d="M34.5156 19.3594L25.7656 28.1094C21.0625 32.8125 21.0625 40.4687 25.7656 45.1719L28.8281 48.2344C33.5313 52.9375 41.1875 52.9375 45.8906 48.2344L54.6406 39.4844L34.5156 19.3594Z" fill="#4F5D73"/>
<path opacity="0.2" d="M56.6094 44.1875C55.7344 45.0625 54.4219 45.0625 53.5469 44.1875L31.8906 22.5313C31.0156 21.6563 31.0156 20.3438 31.8906 19.4688C32.7656 18.5938 34.0781 18.5938 34.9531 19.4688L56.6094 41.125C57.4844 42 57.4844 43.3125 56.6094 44.1875Z" fill="#231F20"/>
<path d="M56.6094 42.1094C55.7344 42.9844 54.4219 42.9844 53.5469 42.1094L31.8906 20.4531C31.0156 19.5781 31.0156 18.2656 31.8906 17.3906C32.7656 16.5156 34.0781 16.5156 34.9531 17.3906L56.6094 39.0469C57.4844 39.9219 57.4844 41.2344 56.6094 42.1094Z" fill="#4F5D73"/>
</g>
<defs>
<filter id="filter0_d_164_674" x="0" y="0" width="78" height="78" filterUnits="userSpaceOnUse" color-interpolation-filters="sRGB">
<feFlood flood-opacity="0" result="BackgroundImageFix"/>
<feColorMatrix in="SourceAlpha" type="matrix" values="0 0 0 0 0 0 0 0 0 0 0 0 0 0 0 0 0 0 127 0" result="hardAlpha"/>
<feOffset dy="4"/>
<feGaussianBlur stdDeviation="2"/>
<feColorMatrix type="matrix" values="0 0 0 0 0 0 0 0 0 0 0 0 0 0 0 0 0 0 0.25 0"/>
<feBlend mode="normal" in2="BackgroundImageFix" result="effect1_dropShadow_164_674"/>
<feBlend mode="normal" in="SourceGraphic" in2="effect1_dropShadow_164_674" result="shape"/>
</filter>
<clipPath id="clip0_164_674">
<rect width="70" height="70" fill="white" transform="translate(4)"/>
</clipPath>
</defs>
</svg>
