<svg width="78" height="78" viewBox="0 0 78 78" fill="none" xmlns="http://www.w3.org/2000/svg">
<g clip-path="url(#clip0_164_557)" filter="url(#filter0_d_164_557)">
<path d="M39 70C58.33 70 74 54.33 74 35C74 15.67 58.33 0 39 0C19.67 0 4 15.67 4 35C4 54.33 19.67 70 39 70Z" fill="#77B3D4"/>
<g opacity="0.2">
<path d="M56.5 40.5781C56.5 50.75 48.625 59.0625 39 59.0625C29.375 59.0625 21.5 50.75 21.5 40.5781C21.5 30.4062 32 22.0938 39 10.9375C46 22.0938 56.5 30.2969 56.5 40.5781Z" fill="#231F20"/>
</g>
<path d="M56.5 38.3906C56.5 48.5625 48.625 56.875 39 56.875C29.375 56.875 21.5 48.5625 21.5 38.3906C21.5 28.2187 32 19.9062 39 8.75C46 19.9062 56.5 28.1094 56.5 38.3906Z" fill="white"/>
</g>
<defs>
<filter id="filter0_d_164_557" x="0" y="0" width="78" height="78" filterUnits="userSpaceOnUse" color-interpolation-filters="sRGB">
<feFlood flood-opacity="0" result="BackgroundImageFix"/>
<feColorMatrix in="SourceAlpha" type="matrix" values="0 0 0 0 0 0 0 0 0 0 0 0 0 0 0 0 0 0 127 0" result="hardAlpha"/>
<feOffset dy="4"/>
<feGaussianBlur stdDeviation="2"/>
<feColorMatrix type="matrix" values="0 0 0 0 0 0 0 0 0 0 0 0 0 0 0 0 0 0 0.25 0"/>
<feBlend mode="normal" in2="BackgroundImageFix" result="effect1_dropShadow_164_557"/>
<feBlend mode="normal" in="SourceGraphic" in2="effect1_dropShadow_164_557" result="shape"/>
</filter>
<clipPath id="clip0_164_557">
<rect width="70" height="70" fill="white" transform="translate(4)"/>
</clipPath>
</defs>
</svg>
